<svg width="1655" height="259" viewBox="0 0 1655 259" fill="none" xmlns="http://www.w3.org/2000/svg">
<rect width="195.729" height="66.6747" rx="33.3374" transform="matrix(0.441256 -0.897381 0.906354 0.42252 0 198.643)" fill="#008CFF"/>
<path d="M43.7002 110.127L72.1732 52.2215C80.2975 35.6992 100.411 28.6115 117.099 36.3909V36.3909C133.786 44.1702 140.728 63.8706 132.604 80.3929L104.131 138.298L43.7002 110.127Z" fill="#FF9D48"/>
<path d="M247.684 129.4H260.684C275.084 129.4 282.284 123.133 282.284 110.6C282.284 98.0667 275.084 91.8 260.684 91.8H247.684V129.4ZM247.684 211H208.484V60.2H270.884C287.817 60.2 300.751 64.6 309.684 73.4C318.751 82.2 323.284 94.6 323.284 110.6C323.284 126.6 318.751 139 309.684 147.8C300.751 156.6 287.817 161 270.884 161H247.684V211ZM373.231 60.2V177.8H420.231V211H334.031V60.2H373.231ZM466.942 60.2V142.2C466.942 146.6 467.075 151.133 467.342 155.8C467.742 160.333 468.742 164.467 470.342 168.2C472.075 171.933 474.742 175 478.342 177.4C481.942 179.667 487.009 180.8 493.542 180.8C500.075 180.8 505.075 179.667 508.542 177.4C512.142 175 514.809 171.933 516.542 168.2C518.275 164.467 519.275 160.333 519.542 155.8C519.942 151.133 520.142 146.6 520.142 142.2V60.2H559.142V147.6C559.142 171.067 553.742 188.2 542.942 199C532.275 209.8 515.809 215.2 493.542 215.2C471.275 215.2 454.742 209.8 443.942 199C433.142 188.2 427.742 171.067 427.742 147.6V60.2H466.942ZM663.628 98.8C659.361 95.3333 655.095 92.8 650.828 91.2C646.561 89.4667 642.428 88.6 638.428 88.6C633.361 88.6 629.228 89.8 626.028 92.2C622.828 94.6 621.228 97.7333 621.228 101.6C621.228 104.267 622.028 106.467 623.628 108.2C625.228 109.933 627.294 111.467 629.828 112.8C632.495 114 635.428 115.067 638.628 116C641.961 116.933 645.228 117.933 648.428 119C661.228 123.267 670.561 129 676.428 136.2C682.428 143.267 685.428 152.533 685.428 164C685.428 171.733 684.095 178.733 681.428 185C678.895 191.267 675.095 196.667 670.028 201.2C665.095 205.6 658.961 209 651.628 211.4C644.428 213.933 636.228 215.2 627.028 215.2C607.961 215.2 590.295 209.533 574.028 198.2L590.828 166.6C596.695 171.8 602.495 175.667 608.228 178.2C613.961 180.733 619.628 182 625.228 182C631.628 182 636.361 180.533 639.428 177.6C642.628 174.667 644.228 171.333 644.228 167.6C644.228 165.333 643.828 163.4 643.028 161.8C642.228 160.067 640.894 158.533 639.028 157.2C637.161 155.733 634.694 154.4 631.628 153.2C628.695 152 625.095 150.667 620.828 149.2C615.761 147.6 610.761 145.867 605.828 144C601.028 142 596.695 139.4 592.828 136.2C589.095 133 586.028 129 583.628 124.2C581.361 119.267 580.228 113.067 580.228 105.6C580.228 98.1333 581.428 91.4 583.828 85.4C586.361 79.2667 589.828 74.0667 594.228 69.8C598.761 65.4 604.228 62 610.628 59.6C617.161 57.2 624.428 56 632.428 56C639.895 56 647.695 57.0667 655.828 59.2C663.961 61.2 671.761 64.2 679.228 68.2L663.628 98.8ZM866.693 110.6C857.627 99.5333 846.427 94 833.093 94C827.227 94 821.76 95.0667 816.693 97.2C811.76 99.3333 807.493 102.267 803.893 106C800.293 109.6 797.427 113.933 795.293 119C793.293 124.067 792.293 129.533 792.293 135.4C792.293 141.4 793.293 146.933 795.293 152C797.427 157.067 800.293 161.467 803.893 165.2C807.627 168.933 811.96 171.867 816.893 174C821.827 176.133 827.16 177.2 832.893 177.2C845.427 177.2 856.693 171.867 866.693 161.2V207.6L862.693 209C856.693 211.133 851.093 212.667 845.893 213.6C840.693 214.667 835.56 215.2 830.493 215.2C820.093 215.2 810.093 213.267 800.493 209.4C791.027 205.4 782.627 199.867 775.293 192.8C768.093 185.6 762.293 177.133 757.893 167.4C753.493 157.533 751.293 146.8 751.293 135.2C751.293 123.6 753.427 113 757.693 103.4C762.093 93.6667 767.893 85.3333 775.093 78.4C782.427 71.3333 790.893 65.8667 800.493 62C810.093 58 820.16 56 830.693 56C836.693 56 842.56 56.6667 848.293 58C854.16 59.2 860.293 61.1333 866.693 63.8V110.6ZM917.84 135.6C917.84 141.6 918.974 147.133 921.24 152.2C923.507 157.267 926.574 161.667 930.44 165.4C934.307 169.133 938.774 172.067 943.84 174.2C949.04 176.2 954.507 177.2 960.24 177.2C965.974 177.2 971.374 176.2 976.44 174.2C981.64 172.067 986.174 169.133 990.04 165.4C994.04 161.667 997.174 157.267 999.44 152.2C1001.71 147.133 1002.84 141.6 1002.84 135.6C1002.84 129.6 1001.71 124.067 999.44 119C997.174 113.933 994.04 109.533 990.04 105.8C986.174 102.067 981.64 99.2 976.44 97.2C971.374 95.0667 965.974 94 960.24 94C954.507 94 949.04 95.0667 943.84 97.2C938.774 99.2 934.307 102.067 930.44 105.8C926.574 109.533 923.507 113.933 921.24 119C918.974 124.067 917.84 129.6 917.84 135.6ZM876.84 135.6C876.84 124.4 878.907 114 883.04 104.4C887.174 94.6667 892.907 86.2 900.24 79C907.574 71.8 916.307 66.2 926.44 62.2C936.707 58.0667 947.974 56 960.24 56C972.374 56 983.574 58.0667 993.84 62.2C1004.11 66.2 1012.91 71.8 1020.24 79C1027.71 86.2 1033.51 94.6667 1037.64 104.4C1041.77 114 1043.84 124.4 1043.84 135.6C1043.84 146.8 1041.77 157.267 1037.64 167C1033.51 176.6 1027.71 185 1020.24 192.2C1012.91 199.4 1004.11 205.067 993.84 209.2C983.574 213.2 972.374 215.2 960.24 215.2C947.974 215.2 936.707 213.2 926.44 209.2C916.307 205.067 907.574 199.4 900.24 192.2C892.907 185 887.174 176.6 883.04 167C878.907 157.267 876.84 146.8 876.84 135.6ZM1051.8 211L1077.4 60.2H1116.2L1146.4 140.6L1176.4 60.2H1215.2L1240.8 211H1201.8L1188.8 124.2L1153.2 211H1137.6L1103.8 124.2L1090.8 211H1051.8ZM1248.83 211L1274.43 60.2H1313.23L1343.43 140.6L1373.43 60.2H1412.23L1437.83 211H1398.83L1385.83 124.2L1350.23 211H1334.63L1300.83 124.2L1287.83 211H1248.83ZM1491.86 60.2V211H1452.66V60.2H1491.86ZM1570.57 93.4V211H1531.37V93.4H1499.17V60.2H1602.77V93.4H1570.57Z" fill="#484848"/>
</svg>
