<?xml version="1.0" encoding="UTF-8"?>
<svg id="Layer_1" xmlns="http://www.w3.org/2000/svg" width="2446" height="2500" version="1.1" xmlns:xlink="http://www.w3.org/1999/xlink" viewBox="0 0 2446 2500">
  <!-- Generator: Adobe Illustrator 29.1.0, SVG Export Plug-In . SVG Version: 2.1.0 Build 142)  -->
  <defs>
    <clipPath id="clippath">
      <path d="M971.2,1906.7c7.9,4.6,16.8,12.6,19.8,17.9l188.5,335.8c3,5.3-1,6-8.9,1.4l-588.3-339.7c-7.9-4.6-16.8-12.6-19.8-18l-188.5-335.8c-3-5.3,1-5.9,8.9-1.4l588.3,339.7Z" fill="#98add4"/>
    </clipPath>
  </defs>
  <g>
    <path d="M2096.5,1043.9c0,1.2.8,2.2,2,2.3l4.3.2c1.2,0,2.2-.8,2.3-2s-.8-2.2-2-2.3l-4.3-.2c-1.2,0-2.2.8-2.3,2Z" fill="#dce9f5"/>
    <path d="M2094,1036.6c.8.9,2.2,1,3,.2l3.2-2.9c.9-.8,1-2.2.2-3-.8-.9-2.2-1-3-.2l-3.2,2.9c-.9.8-1,2.2-.2,3Z" fill="#dce9f5"/>
    <path d="M2080,1032.6l-2.9-3.2c-.8-.9-2.2-1-3-.2s-1,2.2-.2,3l2.9,3.2c.8.9,2.2,1,3,.2.9-.8,1-2.2.2-3Z" fill="#dce9f5"/>
    <path d="M2076.4,1042.5c0-1.2-.8-2.2-2-2.3l-4.3-.2c-1.2,0-2.2.8-2.3,2,0,1.2.8,2.2,2,2.3l4.3.2c1.2,0,2.2-.8,2.3-2Z" fill="#dce9f5"/>
    <path d="M2075.8,1049.6l-3.2,2.9c-.9.8-1,2.2-.2,3,.8.9,2.2,1,3,.2l3.2-2.9c.9-.8,1-2.2.2-3s-2.2-1-3-.2Z" fill="#dce9f5"/>
    <path d="M2095.7,1057c.8.9,2.2,1,3,.2.9-.8,1-2.2.2-3l-2.9-3.2c-.8-.9-2.2-1-3-.2-.9.8-1,2.2-.2,3l2.9,3.2Z" fill="#dce9f5"/>
    <polygon points="2101.3 1048.8 2094.2 1046.1 2094.2 1046.1 2101.3 1048.8" fill="#dce9f5"/>
    <path d="M1906.3,1238.3l-7.7-.4c-2.1-.1-4,1.5-4.1,3.7-.1,2.1,1.5,4,3.7,4.1l7.7.4c2.1.1,4-1.5,4.1-3.7s-1.5-4-3.7-4.1Z" fill="#dce9f5"/>
    <path d="M2093.3,1182.9c2.9.9,6-.8,6.8-3.7l3.1-10.6c.9-2.9-.8-6-3.7-6.8-2.9-.9-6,.8-6.8,3.7l-3.1,10.6c-.9,2.9.8,6,3.7,6.8Z" fill="#dce9f5"/>
    <path d="M2061,1172.8l5.3,9.7c1.5,2.7,4.8,3.7,7.5,2.2,2.7-1.5,3.7-4.8,2.2-7.5l-5.3-9.7c-1.5-2.7-4.8-3.7-7.5-2.2-2.7,1.5-3.7,4.8-2.2,7.5Z" fill="#dce9f5"/>
    <path d="M2063,1219.4c-1.5-2.7-4.8-3.7-7.5-2.2l-9.7,5.3c-2.7,1.5-3.7,4.8-2.2,7.5,1.5,2.7,4.8,3.7,7.5,2.2l9.7-5.3c2.7-1.5,3.7-4.8,2.2-7.5Z" fill="#dce9f5"/>
    <path d="M2078.1,1232c-2.9-.9-6,.8-6.8,3.7l-3.1,10.6c-.9,2.9.8,6,3.7,6.8,2.9.9,6-.8,6.8-3.7l3.1-10.6c.9-2.9-.8-6-3.7-6.8Z" fill="#dce9f5"/>
    <path d="M2110.5,1242l-5.3-9.7c-1.5-2.7-4.8-3.7-7.5-2.2-2.7,1.5-3.7,4.8-2.2,7.5l5.3,9.7c1.5,2.7,4.8,3.7,7.5,2.2,2.7-1.5,3.7-4.8,2.2-7.5Z" fill="#dce9f5"/>
    <path d="M2108.5,1195.4c1.5,2.7,4.8,3.7,7.5,2.2l9.7-5.3c2.7-1.5,3.7-4.8,2.2-7.5h0c-1.5-2.7-4.8-3.7-7.5-2.2l-9.7,5.3c-2.7,1.5-3.7,4.8-2.2,7.5Z" fill="#dce9f5"/>
    <path d="M1463.1,211.6l-6-3.3c-1.6-.9-3.7-.3-4.6,1.3h0c-.9,1.6-.3,3.7,1.3,4.6l6,3.3c1.6.9,3.7.3,4.6-1.3.9-1.6.3-3.7-1.3-4.6Z" fill="#dce9f5"/>
    <path d="M1458.7,225.9l-6.6,1.9c-1.8.5-2.9,2.4-2.3,4.2.5,1.8,2.4,2.9,4.2,2.3l6.6-1.9c1.8-.5,2.9-2.4,2.3-4.2-.5-1.8-2.4-2.9-4.2-2.3Z" fill="#dce9f5"/>
    <path d="M1482.4,239.5h0c-1.8.5-2.9,2.4-2.3,4.2l1.9,6.6c.5,1.8,2.4,2.9,4.2,2.3s2.9-2.4,2.3-4.2l-1.9-6.6c-.5-1.8-2.4-2.9-4.2-2.3Z" fill="#dce9f5"/>
    <path d="M1493.3,236.7l6,3.3c1.6.9,3.7.3,4.6-1.3.9-1.6.3-3.7-1.3-4.6l-6-3.3c-1.6-.9-3.7-.3-4.6,1.3-.9,1.6-.3,3.7,1.3,4.6Z" fill="#dce9f5"/>
    <path d="M1497.8,222.3l6.6-1.9c1.8-.5,2.9-2.4,2.3-4.2-.5-1.8-2.4-2.9-4.2-2.3l-6.6,1.9c-1.8.5-2.9,2.4-2.3,4.2.5,1.8,2.4,2.9,4.2,2.3Z" fill="#dce9f5"/>
    <path d="M1474.5,198c-.5-1.8-2.4-2.9-4.2-2.3-1.8.5-2.9,2.4-2.3,4.2l1.9,6.6c.5,1.8,2.4,2.9,4.2,2.3,1.8-.5,2.9-2.4,2.3-4.2l-1.9-6.6Z" fill="#dce9f5"/>
    <path d="M1436.5,238.2h0s24.2,25.4,24.2,25.4l.7.7h1.2c0-.1,32.3-3.3,32.3-3.3l14.5-1.4h1.2c0-.1.1-.9.1-.9v-.5c0,0,5.4-30.4,5.4-30.4l2.6-14.9,322.8-109.7-.4,14.4,68.5,56.1h0s0,0,0,0l41.7-29.4,32.7-23v-.6s0-.2,0-.2l1.6-64.4-.3-.3L1917.2,0h0s0,0,0,0l-.9.6-73.6,51.8h0s0,0,0,0l-1.2,48.5-322.2,108.4h0s0,0,0,0l-19.4-20.4-5.8-6.1h-.5c0,0-47.6,4.8-47.6,4.8h-1.2c0,.1-.2,1.3-.2,1.3l-7.6,43.4-.8,4.3-.2,1.2h0s0,0,0,0l.3.3ZM1875.4,92.1l-8.8,2.5,10-3.4-1.3.9ZM1862,101.5l-18,12.6.3-12,21.7-7.4c-2.8,1-4.5,3.8-4,6.7ZM1844.9,117l18.2-12.8c1.5,2,4.1,3.1,6.6,2.3l11.8-3.4c3.3-.9,5.1-4.3,4.2-7.6-.6-2.2-2.3-3.7-4.3-4.2l3.9-2.8,24.7,20.2-1.5,60.3-63.6-52ZM1887.6,86.9l27.9-19.6,23.8,19.5-27.9,19.6-23.8-19.5ZM1911.2,169.1l1.5-60.4,28.8-20.3,39,31.9-54.3,38.2-15,10.5ZM1981.4,117.6l-37.6-30.8,2.7-1.9c.6,0,1.2,0,1.9-.2l11.8-3.4c3.3-.9,5.1-4.3,4.2-7.6-.1-.4-.3-.7-.4-1.1l18.9-13.3-.5,20.2-.9,38ZM1982.1,56.6l-19.9,14c-1.5-1.1-3.4-1.6-5.4-1l-11.8,3.4c-3.3.9-5.1,4.3-4.2,7.6.4,1.4,1.3,2.6,2.4,3.3l-1.6,1.1-24.7-20.2,1.5-60.3,63.6,52ZM1915.7,4.4l-1.5,60.4-28.8,20.3-39-31.9,50.2-35.3,19.1-13.4ZM1883.1,86.7l-.6.4-38.1,12.8,1.1-44,37.6,30.8ZM1441.9,217l4.6-26.3,14.5,15.3,8.3,8.7-.3,1.8-3,17.3-27.4,2.7,3.4-19.5ZM1490.4,198.1c-.9.2-1.8.8-2.3,1.7l-3.3,6c-.9,1.6-.3,3.7,1.3,4.6.6.4,1.4.5,2,.4v.8c-.1,0-4,.4-4,.4l-13.5,1.3-5.1-5.4-17.6-18.5,44.8-4.5h0s-2.3,13.1-2.3,13.1ZM1487.7,213.6l-3.2,18.2h0s-16.6,1.7-16.6,1.7l3.2-18.3,16.6-1.7ZM1464.6,241.2l-2.2,4c-.8,1.5-.4,3.2.8,4.3l-2,11.7-21.7-22.9h0s26.2-2.6,26.2-2.6l-.9,5.5ZM1463,262.2l2.1-11.9c1.3.1,2.6-.5,3.3-1.7l3.3-6c.9-1.6.3-3.7-1.3-4.6-1-.6-2.2-.5-3.1,0l.4-2.3,2.3-.2,15.1-1.5,22.8,23.9-44.8,4.5ZM1509.2,256.4l-22.8-24,.9-5,2.5-14.1,27.4-2.7-8,45.7ZM1516.3,208.8l-26.2,2.6.3-1.8c.1-.2.3-.4.4-.6l3.3-6c.9-1.6.3-3.7-1.3-4.6-.1,0-.3-.1-.4-.2l2.1-12.3,21.7,22.9Z" fill="#dce9f5"/>
    <path d="M1898.2,56.3c.9,3.3,4.3,5.1,7.6,4.2,3.3-.9,5.1-4.3,4.2-7.6l-3.4-11.8c-.9-3.3-4.3-5.1-7.6-4.2-3.3.9-5.1,4.3-4.2,7.6l3.4,11.8Z" fill="#dce9f5"/>
    <path d="M1869.4,70.3l10.7,5.9c3,1.6,6.7.6,8.3-2.4,1.6-3,.6-6.7-2.4-8.3l-10.7-5.9c-3-1.6-6.7-.6-8.3,2.4s-.6,6.7,2.4,8.3Z" fill="#dce9f5"/>
    <path d="M1899,112.8c-3-1.6-6.7-.6-8.3,2.4l-5.9,10.7c-1.6,3-.6,6.7,2.4,8.3,3,1.6,6.7.6,8.3-2.4l5.9-10.7c1.6-3,.6-6.7-2.4-8.3Z" fill="#dce9f5"/>
    <path d="M1928.3,119.8c-.9-3.3-4.3-5.1-7.6-4.2s-5.1,4.3-4.2,7.6l3.4,11.8c.9,3.3,4.3,5.1,7.6,4.2,3.3-.9,5.1-4.3,4.2-7.6l-3.4-11.8Z" fill="#dce9f5"/>
    <path d="M1957.1,105.8l-10.7-5.9c-3-1.6-6.7-.6-8.3,2.4-1.6,3-.6,6.7,2.4,8.3l10.7,5.9c3,1.6,6.7.6,8.3-2.4,1.6-3,.6-6.7-2.4-8.3Z" fill="#dce9f5"/>
    <path d="M1927.5,63.3c3,1.6,6.7.6,8.3-2.4l5.9-10.7c1.6-3,.6-6.7-2.4-8.3h0c-3-1.6-6.7-.6-8.3,2.4l-5.9,10.7c-1.6,3-.6,6.7,2.4,8.3Z" fill="#dce9f5"/>
    <path d="M925.8,1312.3c3.2.9,6.5-.9,7.4-4l3.3-11.4c.9-3.2-.9-6.5-4-7.4-3.2-.9-6.5.9-7.4,4l-3.3,11.4c-.9,3.2.9,6.5,4,7.4Z" fill="#dce9f5"/>
    <path d="M893.1,1351.7c-1.6-2.9-5.2-3.9-8.1-2.4l-10.4,5.7c-2.9,1.6-3.9,5.2-2.4,8.1h0c1.6,2.9,5.2,3.9,8.1,2.4l10.4-5.7c2.9-1.6,3.9-5.2,2.4-8.1Z" fill="#dce9f5"/>
    <path d="M909.4,1365.3c-3.2-.9-6.5.9-7.4,4l-3.3,11.4c-.9,3.2.9,6.5,4,7.4,3.2.9,6.5-.9,7.4-4l3.3-11.4c.9-3.2-.9-6.5-4-7.4Z" fill="#dce9f5"/>
    <path d="M944.3,1376.1l-5.7-10.4c-1.6-2.9-5.2-3.9-8.1-2.4-2.9,1.6-3.9,5.2-2.4,8.1l5.7,10.4c1.6,2.9,5.2,3.9,8.1,2.4,2.9-1.6,3.9-5.2,2.4-8.1Z" fill="#dce9f5"/>
    <path d="M963,1314.4c-1.6-2.9-5.2-3.9-8.1-2.4l-10.4,5.7c-2.9,1.6-3.9,5.2-2.4,8.1,1.6,2.9,5.2,3.9,8.1,2.4l10.4-5.7c2.9-1.6,3.9-5.2,2.4-8.1h0Z" fill="#dce9f5"/>
    <path d="M2233.8,2160.9l212.1-314.5-247-322.8-244.6,32.3c3.5-46.9-.3-95.3-8.6-141.8-1.7-12.9-3.7-24.5-6.2-34.2-4.8-18.8-9.7-35.8-14.5-51.4,0,0,0,0,0,0-5.6-18.2-11.7-35.7-18.1-52l19.6-35.2h0s0,0,0,0l-12.7-27.9,45.4-44.5,64.8,15.6-7.2,10.8,25.1,75.6h0s45.1-2.2,45.1-2.2l36.7-1.8.3-.5h0c0-.1,32.2-48.3,32.2-48.3v-.4c-.1,0-25.1-75.3-25.1-75.3h0s-.9,0-.9,0l-80.9,3.9h0s0,0,0,0l-24.3,36.3-64.1-15.7,106.2-104h0s0,0,0,0l15,5.6,6.6,2.5.2-.2h0s25.8-15.8,25.8-15.8l.7-.4-.2-.8-7.4-25.8-1-3.6-.2-.8h0s0,0,0,0h-.3c0,0-16.9-6.4-16.9-6.4l-4-1.5-.4-.2-.7.4-17.8,10.9-7.6,4.6-.7.4v.5c.1,0,.2.3.2.3l5.2,18.4,2.7,9.6-107.3,105.8-146.5-35.8c-81.7-78.2-167.3-124.1-221.8-148.1-20.3-26.8-62.4-36.6-62.4-36.6-.1.3-.2.6-.3.9-2-5.9-4-11.7-5.8-17.3,5-7.5,9.7-15,14.2-22.7,0,0,0,0,0,0,16.1-24.9,52.4-63.4,70-143.5l155.3,147.6,354.3-34.8,115.7-385.9-246-233.7-354.3,34.8-22.5,75.2-17.2-10c-19.5-11.3-35.4-2.2-35.5,20.2l-.2,57.7c0,15.5,7.5,33.4,18.6,46.6l-.6,2c-13.8-22.7-29.9-39.5-46.3-43,0,0-65.6-158.5-329.1-118.8-128.9,19.4-200.6,153.6-200.6,153.6,0,0-33.2,9.2-41.3,49-2.2,10.9-1.4,20.7.9,29.2,5.3,19.7,18.4,31.9,18.4,31.9,0,0-97.5,65.7,38.8,138.2.8,11.7,1.6,23.9,2.4,36.5-.3,1-.2,2.4.3,3.9,1.3,20,2.7,41,4.1,62.6,4.7,72.3,31.5,171,92.4,220.1-8.7,32.6-9.6,68.1-2.5,102.6,16,77.8,89.3,258.4-112.3,395-17.9-20-35-30.5-64-43.1,0,0-87.2-37.9-131,16.1-3.8,4.7-7.2,9.9-10,15.4-12.8,6.7-24.5,18.2-32.5,37.2-4.1,9.7-6.1,19.5-6,29.1-.7.4-1.3.8-2,1.2-43.2,27.3-72.9,66.7-85.7,112.8-140.4-81.1-275-158.8-275.4-159-1.8-1-3.7-1.9-5.7-2.4-1-.2-2.2-.4-3,.4,0,0-10.6,13.2-10.6,13.2,0,0,0,0,0,0-.6.7-.4,2,.6,3.9l188.5,335.8c3,5.3,11.9,13.4,19.8,18l5.1,2.9c.7.7,1.6,1.4,2.6,1.9,4.6,1.9,588.3,341.1,593.1,341.7,5.2,1.5,10.9,1.3,16.1-.2,1.3-.3,30.3-17,72-41.1,19.6,18.4,40.3,45.1,43.9,76.1,5.6,48.7,12.6,122.7,53.2,164.2,43.8,44.8,99.7,34.2,120.9,19.9,32.8-22.2,36.5-66.7,39.9-130.6.6-12,1-23.1,1.1-33.4,218.8,85.9,368.3,46,439.1,1.2l2.9.9,1.2.4.8-.6,28.7-20.2.4-.3h0s0,0,0,0v-1.2s.2-6.5.2-6.5c29.7-30.7,48.9-70.1,59.5-113.9l170.9-22.5ZM2055,1192.3l-7.9-2.3,9.3,2.2h-1.4ZM2040.3,1193l-19.7,1,6-9,20.1,4.8c-2.6-.6-5.3.7-6.3,3.2ZM2019.8,1196.5l20-1c.1,2.3,1.6,4.3,3.9,5l10.6,3.1c2.9.9,6-.8,6.8-3.7.6-1.9,0-3.9-1.3-5.3l4.3-.2,9,27.2-30.2,45.1-23.3-70.2ZM2066.8,1194.2l30.7-1.5,8.7,26.2-30.7,1.5-8.7-26.3ZM2045.1,1268.1l30.2-45.2,31.7-1.5,14.3,43-58.3,2.8-17.8.9ZM2123.4,1262.8l-13.8-41.5h3c.5.2,1,.4,1.5.6l10.6,3.1c2.9.9,6-.8,6.8-3.7,0-.3.2-.7.2-1l20.8-1-7.8,11.6-21.4,32ZM2153.2,1216.6l-21.9,1.1c-.6-1.6-1.9-2.8-3.6-3.4l-10.6-3.1c-2.9-.9-6,.8-6.8,3.7-.4,1.3-.2,2.6.2,3.7h-1.8c0,0-9-27.1-9-27.1l30.2-45.1,23.3,70.2ZM2127.9,1145l-30.2,45.2-31.7,1.5-14.3-43,55.4-2.7,20.7-1ZM2049.6,1150.4l13.8,41.5h-.7s-35.1-8.6-35.1-8.6l19.6-29.4,2.4-3.6ZM2108.5,1035.1l5.3,18.4-12.5-4.7-7.1-2.7h0s-.3-1.1-.3-1.1l-3-10.7h0l3,10.7-3-10.7,14.8-9.1,2.8,9.8ZM2089.7,1035h0l3.2,11.3-9,5.5-3.2-11.2h0s9-5.5,9-5.5l3.2,11.3-3.2-11.3ZM2089,1032.4l.4,1.4h0s-.4-1.4-.4-1.4h0ZM2086.8,1024.7l-2.1-7.3,2.1,7.3h0ZM2088,1024.6l-2.1-7.2,18.6,7h0s-14.2,8.7-14.2,8.7l-1-3.4.2-2.9c0-1-.6-2-1.6-2.2ZM2090.5,1033.1h0l-1-3.4h0l1,3.4ZM2093.7,1047.3h0,0l4.4,1.7-4.4-1.7h0l4.4,1.7,15.1,5.7-24.2,14.9h0s-2.3-8.1-2.3-8.1c.5-.4.8-.9.8-1.6l.2-4.3c0-1.2-.8-2.2-2-2.3-.5,0-.9.1-1.3.3v-.5c-.1,0,1.9-1.3,1.9-1.3l7.3-4.5ZM2082.9,1052.5l-14.8,9.1-8.1-28.2,19.6,7.4.9,3.1,2.5,8.7ZM2069.1,1062.4l14.2-8.7.3,1.1c0,.1,0,.3,0,.4l-.2,4.3c0,1.2.8,2.2,2,2.3,0,0,.2,0,.3,0l2.2,7.6-18.6-7ZM2086,1017.4l2.1,7.2h0l-2.1-7.2h0ZM2084.7,1017.4l2.1,7.3c-.8.3-1.4,1-1.4,1.9l-.2,4.3c0,1.2.8,2.2,2,2.3.7,0,1.4-.3,1.8-.8l.4,1.4-1.2.8-8.2,5-19.5-7.3,24.2-14.9ZM1722.2,416.5l-4,13.2-84.2-48.6,11.3-37.7,76.8,73ZM1767.9,306.3l178.9-17.6-29.3,97.9-131.2,12.9-90.6-86.1,72.3-7.1ZM2102.4,824.2l-76.8-73,65.5-218.7,101.7-10-62.2,207.6-28.2,94.1ZM1615.7,695.8l88.7-8.7,74.1,70.4-30.4,101.5-135.7-128.9c1.4-10.8,2.5-22.2,3.3-34.3ZM1830.3,781l131.2-12.9,90.6,86.1-251.2,24.7,29.3-97.9ZM2167.8,468.3l-124.4,12.2-74.1-70.4,30.4-101.5,168.1,159.7ZM1682.7,548.4l-26,86.8-40.6,4c-.5-12.1-1.3-24.7-2.5-37.9-2.3-24.3-10-53.9-21.1-81.1l6.1-20.3,84.2,48.6ZM2140.6,1559.7l-70.6,104.7-60.5,8-56.3-73.6c0-4.8,0-9.6,0-14.4l110.6-14.6,76.8-10.1ZM2200.4,1571.9l161,210.3,32.6,42.6-108.2,14.3-141.2-184.5h0s55.8-82.7,55.8-82.7ZM2171.7,2033.4l90.7-134.4,125.2-16.5-155.2,230.1-60.6-79.2ZM1638.7,2055.2l2-11.5h0s0,0,0,0l-62.1-65.1-.7-.7h0s0,0,0,0l-15.3,8.2-192.1-110.9c-3.3-4.4-7.3-8.7-12-13.1-1.7-1.6-3.5-3.1-5.3-4.5,39.9,2.3,83.4,11,126.8,31.8,38.1,24.3,78,47,113.2,66.2,80.4,60,53.5,92.5,45.5,99.7ZM1565.4,1987.6l10.4-5.5-1.8,10.5-8.6-5ZM1617.7,2057.2l19.7-10.5-1.8,10.6c-2.1.6-7.4,1.5-17.9,0ZM1637,2043.8l-23.7,12.6c-.7-.1-1.3-.3-2-.4,3.1-1.1,4.9-4.5,3.9-7.7-1-3.2-4.5-5-7.7-4l-11.7,3.7c-1.6.5-2.8,1.6-3.5,2.9-3.6-1.1-7.4-2.4-11.5-3.8,10.9-6.3,17.4-10,18-10.3,1.3-.9,2.6-1.7,3.5-2.9.9-1.2,1.6-2.6,1.6-4.1v-15.9s0,0,0,0c0-2.6-1.7-5.2-5.1-7.2l-22.1-12.8,2-11.6,17.2,18.1,41.2,43.2ZM1952.4,1693c0-.8,0-1.7,0-2.5l.9,1.2-.9,1.3ZM2115.5,2052.7l66.3,86.6-113.3,14.9c4.7-30.8,5.5-63.2,3.1-95.8l43.9-5.8ZM1887.9,1233l3.5.8-1.7,3c-.6-1.3-1.2-2.6-1.9-3.9ZM1896.9,1227.6l4.3-3.9-4.8,4.7.5-.9ZM1902,1218.5l6.7-12.1,3.1,6.9-10.3,10.2c1.3-1.3,1.5-3.4.4-4.9ZM1900.6,1217.3c-1.4-.8-3.2-.6-4.4.5l-5.8,5.2c-1.6,1.4-1.7,3.9-.3,5.5.9,1.1,2.3,1.5,3.6,1.2l-1.5,2.7-5.4-1.3c-1.8-3.7-3.6-7.3-5.5-10.8.3-.5.4-1,.5-1.6l.4-7.7c.1-2.1-1.5-4-3.7-4.1-1.5,0-2.8.7-3.5,1.8-1.6-2.9-3.2-5.6-4.8-8.3-1-1.7-2-3.3-3.1-5l40.2,9.7-6.8,12.3ZM1906,1274.3c-5-12.5-10.1-24.4-15.3-35.5l2.5-4.5,30.9,7.4-16.5,29.7-1.6,2.9ZM1894,1232.7l.2-.4,18.1-17.8,11.5,25.3-29.8-7.2ZM1998.3,2302.4c1-1,2-2,3-3v3.9c0,0-3-.9-3-.9ZM1972.3,2323v.8s0,0,0,0l-.8-.2c.3-.2.5-.3.8-.5ZM1974.3,2321.6c8.7-5.8,16-11.7,22-17.3.1-.1.3-.3.4-.4l3.3,1h0s-25.6,18.1-25.6,18.1h-.1c0,.1,0,.1,0,.1v-1.5ZM1957.4,1168.3l-44.3,43.6-3.8-8.3-43.6-10.5c-3-4.4-6.3-8.7-9.9-12.9,0,0,0,0,0,0-2.6-3.9-5.3-7.7-7.9-11.4-4-5.8-8.8-11.6-14.6-17.5-5.6-5.8-11.3-11.5-17-17l141,34Z" fill="#dce9f5"/>
    <path d="M2125.4,1314.7l-.2,84.6c0,10.4,7.3,23,16.3,28.3l120.4,69.5c9,5.2,16.4,1,16.4-9.4l.2-84.6c0-10.4-7.3-23-16.3-28.3l-120.4-69.5c-9-5.2-16.4-1-16.4,9.4Z" fill="#dce9f5"/>
    <path d="M377.1,1314.8c-1.8-.4-3.7.7-4.1,2.6l-1.5,6.7c-.4,1.8.7,3.7,2.6,4.1,1.8.4,3.7-.7,4.1-2.6l1.5-6.7c.4-1.8-.7-3.7-2.6-4.1Z" fill="#dce9f5"/>
    <path d="M397.5,1319.7l-3.6-5.8c-1-1.6-3.1-2.1-4.7-1.1-1.6,1-2.1,3.1-1.1,4.7l3.6,5.8c1,1.6,3.1,2.1,4.7,1.1h0c1.6-1,2.1-3.1,1.1-4.7Z" fill="#dce9f5"/>
    <path d="M401.3,1282.7l-5.8,3.6c-1.6,1-2.1,3.1-1.1,4.7,1,1.6,3.1,2.1,4.7,1.1l5.8-3.6c1.6-1,2.1-3.1,1.1-4.7-1-1.6-3.1-2.1-4.7-1.1Z" fill="#dce9f5"/>
    <path d="M388.7,1281.3l1.5-6.7c.4-1.8-.7-3.7-2.6-4.1-1.8-.4-3.7.7-4.1,2.6l-1.5,6.7c-.4,1.8.7,3.7,2.6,4.1,1.8.4,3.7-.7,4.1-2.6Z" fill="#dce9f5"/>
    <path d="M370.1,1275.2c-1-1.6-3.1-2.1-4.7-1.1-1.6,1-2.1,3.1-1.1,4.7l3.6,5.8c1,1.6,3.1,2.1,4.7,1.1,1.6-1,2.1-3.1,1.1-4.7l-3.6-5.8Z" fill="#dce9f5"/>
    <path d="M362.6,1306.5l-5.8,3.6c-1.6,1-2.1,3.1-1.1,4.7,1,1.6,3.1,2.1,4.7,1.1l5.8-3.6c1.6-1,2.1-3.1,1.1-4.7-1-1.6-3.1-2.1-4.7-1.1Z" fill="#dce9f5"/>
    <path d="M404.6,1336h1.2c0-.1,0-.1,0-.1h0s.2-.4.2-.4l17.7-30.3.5-.8-.5-1.1-12.5-31.2-5-12.5-.5-1.1h-.7c0,0-.5.1-.5.1l-33.6,3.7-12.1,1.3-83.8-123.7,46,36,346.4,132,46.2-92.1,146.6,84.6-16.9,25.3,27.1,81.5h0s0,0,0,0l48.9-2.4,39.3-1.9.3-.5h0c0-.1,34.7-52.1,34.7-52.1v-.4c-.1,0-27.1-81.1-27.1-81.1h0s-1,0-1,0l-70.5,3.4.2-58c0-12.3-8.6-27.2-19.3-33.4l-112.3-64.8,104.7-208.4h0,0s0,0,0,0l-206.3-161.4-346.4-132-168.9,336.4-27.1-40,14.5-3.8,34.8-81.4h0s0,0,0,0l-38.7-31-32.4-25.9-.6.2h-.2s-62.3,16.4-62.3,16.4l-.2.4L0,866.3h0s0,0,0,0l.8.7,70.2,56.3h0s0,0,0,0l46.3-12.2,28.2,41.8-30.9,61.5h0,0,0l153,119.7,87.5,129.8-14.6,25-3.8,6.5.2.4h0s17.8,44.4,17.8,44.4l.5,1.1h1.2c0-.1,42.4-4.8,42.4-4.8l5.8-.6ZM65.1,849.3l12.1-28.3,26.6,21.3-12.1,28.3-26.6-21.3ZM100.1,880.8l5.1,8c1.7,2.6,5,3.6,7.8,2.3l17.1,13.7-12.1,3.2-19.2-28.3,1.4,1.1ZM132.5,903.3l-17.4-13.9c1.5-2,1.8-4.8.4-7l-6.5-10.4c-1.8-2.9-5.6-3.7-8.5-1.9-1.9,1.2-2.9,3.3-2.8,5.3l-3.7-3,12.5-29.3,58.3-15.3-32.3,75.5ZM164.2,825.1l-58.4,15.4-27.5-22,19.8-46.3,48.8,39.1,17.3,13.9ZM73.5,814.5c-.2-.6-.4-1.2-.7-1.7l-6.5-10.4c-1.8-2.9-5.6-3.7-8.5-1.9-.3.2-.6.5-.9.7l-18.1-14.5,22.4-5.9,33.9-8.9-19.1,44.7-2.6-2.1ZM36.3,788.3l19,15.2c-.7,1.7-.5,3.7.5,5.4l6.5,10.4c1.8,2.9,5.6,3.7,8.5,1.9,1.3-.8,2.1-2,2.5-3.3l1.6,1.2-12.5,29.3-58.3,15.3,32.3-75.5ZM4.7,866.5l58.4-15.4,27.5,22-19.8,46.3-46.4-37.2-19.7-15.8ZM73.7,919.7l19.1-44.7.4.3,22.4,33.3-38.8,10.2-3.1.8ZM325.3,657.5l161,126-11.4,22.7-99.5-37.9-106.1,211.3,85.1,66.6-12.4,24.7-153.5-58.5-23.8-35.2,54.6-108.8,105.9-210.9ZM657.6,1264.4l-161-126,11.4-22.7,99.5,37.9.2-.4c2,2,4.1,3.7,6.4,5l75.2,43.4-31.5,62.8ZM395,1091.1l7.8-15.4,52.3,19.9-7.8,15.4-52.3-19.9ZM535.7,810.9l52.3,19.9-7.8,15.4-52.3-19.9,7.8-15.4ZM322.3,1110.2l-11.1,22.2-65.9-51.5,77,29.3ZM360.1,1160.6l15.2-30.2,78.9,30.1,89,69.9-183.1-69.8ZM657.1,1054.5l56.4-112.2-85.1-66.6,12.4-24.7,188.3,71.7-89.9,179.1-82-47.4ZM658.5,815.8l13.2-26.3,78.2,61.2-91.4-34.8ZM622.8,761.3l-17.2,34.3-64.7-24.7-101.3-79.5,183.2,69.8ZM184.6,1010.9l-30.8-11.7,9.8-19.5,21,31.2ZM893.5,1322l-9,.4-8.8-2.6c-2.9-.9-5.9.6-7.1,3.4l-21.3,1,15.1-22.7,13.1,7.6c5.6,3.2,10.6,3.4,14.1,1.1l3.9,11.7ZM846.5,1327l21.6-1.1c.1,2.4,1.8,4.6,4.2,5.4l11.4,3.3c3.2.9,6.5-.9,7.4-4h0c.6-2.1,0-4.2-1.4-5.7l4.7-.2,9.7,29.3-32.5,48.6-25.1-75.6ZM966.7,1349.9c-.6-1.7-2-3.1-3.9-3.6l-11.4-3.3c-3.2-.9-6.5.9-7.4,4h0c-.4,1.4-.3,2.8.3,4h-1.9c0,0-9.7-29.2-9.7-29.2l32.5-48.6,25.1,75.6-23.6,1.2ZM939.6,1351.2l-33.1,1.6-9.4-28.3,33.1-1.6,9.4,28.3ZM873.8,1404.2l32.5-48.7,34.1-1.7,15.4,46.4-64.8,3.2-17.3.8ZM958.1,1398.4l-14.8-44.7,3.2-.2c.5.3,1,.6,1.6.8l11.4,3.3c3.2.9,6.5-.9,7.4-4,.1-.4.2-.7.2-1.1l22.4-1.1-9.7,14.5-21.7,32.5ZM963,1271.5l-32.5,48.7-34.1,1.7-4.5-13.5c.6-.7,1.1-1.5,1.5-2.4l3.2,5.9c1.6,2.9,5.2,3.9,8.1,2.4h0c2.9-1.6,3.9-5.2,2.4-8.1l-5.7-10.4c-1.3-2.3-3.9-3.4-6.3-3v-18c0,0,47.9-2.3,47.9-2.3l20.2-1ZM368.2,1293.2l18.4-2h0s6.2,15.4,6.2,15.4l-18.4,2-6.2-15.5ZM367.4,1291.3l-10.3-25.6,46.2-5.1-16.7,28.6-5,.6-14.2,1.6ZM401.1,1307.7l4.5,1c1.6.4,3.2-.5,3.9-1.9l11.8-1.3-15.9,27.2h0s-9.8-24.4-9.8-24.4l5.5-.6ZM421.7,1303.4l-12,1.3c-.2-1.3-1.2-2.4-2.6-2.7l-6.7-1.5c-1.8-.4-3.7.7-4.1,2.6-.3,1.1,0,2.2.8,3l-2.3.3-.9-2.1-5.6-14.1,16.6-28.5,2.9,7.3,13.8,34.5ZM355.6,1267.1l9.8,24.4-1.8.2c-.2,0-.4-.2-.6-.2l-6.7-1.5c-1.8-.4-3.7.7-4.1,2.6h0c0,.1,0,.3,0,.4l-12.4,1.4,15.9-27.2ZM339.2,1296.3h0s13.2-1.5,13.2-1.5c.5.8,1.2,1.5,2.2,1.7l6.7,1.5c1.8.4,3.7-.7,4.1-2.6.2-.7,0-1.4-.2-2.1h.9c0,0,1.4,3.5,1.4,3.5l5.1,12.6-3.8,6.4-12.9,22.1-16.8-41.8ZM357.6,1339.2l10.6-18.2,6-10.3,1.8-.2,17.4-1.9,10.3,25.6-20.6,2.3-25.6,2.8Z" fill="#dce9f5"/>
    <path d="M52.8,858.6l-10.4,6.5c-2.9,1.8-3.7,5.6-1.9,8.5,1.8,2.9,5.6,3.7,8.5,1.9l10.4-6.5c2.9-1.8,3.7-5.6,1.9-8.5-1.8-2.9-5.6-3.7-8.5-1.9Z" fill="#dce9f5"/>
    <path d="M80.8,892.7l2.7-12c.7-3.3-1.3-6.6-4.6-7.3-3.3-.7-6.6,1.3-7.3,4.6l-2.7,12c-.7,3.3,1.3,6.6,4.6,7.3,3.3.7,6.6-1.3,7.3-4.6Z" fill="#dce9f5"/>
    <path d="M118,859.7l12,2.7c3.3.7,6.6-1.3,7.3-4.6.7-3.3-1.3-6.6-4.6-7.3l-12-2.7c-3.3-.7-6.6,1.3-7.3,4.6-.7,3.3,1.3,6.6,4.6,7.3Z" fill="#dce9f5"/>
    <path d="M110.1,830.8c1.8,2.9,5.6,3.7,8.5,1.9l10.4-6.5c2.9-1.8,3.7-5.6,1.9-8.5h0c-1.8-2.9-5.6-3.7-8.5-1.9l-10.4,6.5c-2.9,1.8-3.7,5.6-1.9,8.5h0Z" fill="#dce9f5"/>
    <path d="M90.5,798.6l-2.7,12c-.7,3.3,1.3,6.6,4.6,7.3,3.3.7,6.6-1.3,7.3-4.6l2.7-12c.7-3.3-1.3-6.6-4.6-7.3-3.3-.7-6.6,1.3-7.3,4.6Z" fill="#dce9f5"/>
    <path d="M53.3,831.5l-12-2.7c-3.3-.7-6.6,1.3-7.3,4.6-.7,3.3,1.3,6.6,4.6,7.3l12,2.7c3.3.7,6.6-1.3,7.3-4.6h0c.7-3.3-1.3-6.6-4.6-7.3Z" fill="#dce9f5"/>
    <path d="M577.2,600.9l100.4,57.9c12.1,7,21.9,1.4,22-12.5l.3-104.1c0-13.9-9.7-30.8-21.8-37.8l-100.4-57.9c-12.1-7-21.9-1.4-22,12.5l-.3,104.1c0,13.9,9.7,30.8,21.8,37.8Z" fill="#dce9f5"/>
  </g>
  <g id="blockchain_programming">
    <g>
      <g>
        <polygon points="1892.4 1234.2 2067.1 1063 2066.5 1060.8 1894.5 1230.3 1892.4 1234.2" fill="#5386b4"/>
        <g>
          <path d="M2096.5,1043.9h0c0-1.2,1.1-2.1,2.3-2l4.3.2c1.2,0,2.1,1.1,2,2.3h0c0,1.2-1.1,2.1-2.3,2l-4.3-.2c-1.2,0-2.1-1.1-2-2.3Z" fill="#e9f0f7"/>
          <path d="M2094,1036.6h0c-.8-.9-.7-2.2.2-3l3.2-2.9c.9-.8,2.2-.7,3,.2h0c.8.9.7,2.2-.2,3l-3.2,2.9c-.9.8-2.2.7-3-.2Z" fill="#e9f0f7"/>
          <path d="M2087.2,1033.2h0c-1.2,0-2.1-1.1-2-2.3l.2-4.3c0-1.2,1.1-2.1,2.3-2h0c1.2,0,2.1,1.1,2,2.3l-.2,4.3c0,1.2-1.1,2.1-2.3,2Z" fill="#e9f0f7"/>
          <path d="M2079.9,1035.6h0c-.9.8-2.2.7-3-.2l-2.9-3.2c-.8-.9-.7-2.2.2-3h0c.9-.8,2.2-.7,3,.2l2.9,3.2c.8.9.7,2.2-.2,3Z" fill="#e9f0f7"/>
          <path d="M2076.4,1042.5h0c0,1.2-1.1,2.1-2.3,2l-4.3-.2c-1.2,0-2.1-1.1-2-2.3h0c0-1.2,1.1-2.1,2.3-2l4.3.2c1.2,0,2.1,1.1,2,2.3Z" fill="#e9f0f7"/>
          <path d="M2078.9,1049.8h0c.8.9.7,2.2-.2,3l-3.2,2.9c-.9.8-2.2.7-3-.2h0c-.8-.9-.7-2.2.2-3l3.2-2.9c.9-.8,2.2-.7,3,.2Z" fill="#e9f0f7"/>
          <path d="M2085.7,1053.2h0c1.2,0,2.1,1.1,2,2.3l-.2,4.3c0,1.2-1.1,2.1-2.3,2h0c-1.2,0-2.1-1.1-2-2.3l.2-4.3c0-1.2,1.1-2.1,2.3-2Z" fill="#e9f0f7"/>
          <path d="M2093,1050.8h0c.9-.8,2.2-.7,3,.2l2.9,3.2c.8.9.7,2.2-.2,3h0c-.9.8-2.2.7-3-.2l-2.9-3.2c-.8-.9-.7-2.2.2-3Z" fill="#e9f0f7"/>
        </g>
        <g>
          <g>
            <polygon points="2086.4 1051.8 2093.7 1047.3 2093.7 1047.3 2086.4 1051.8" fill="#175294"/>
            <polygon points="2094.2 1046.1 2101.3 1048.8 2094.2 1046.1 2094.2 1046.1" fill="#175294"/>
            <polygon points="2093.7 1047.3 2098.1 1048.9 2093.7 1047.3 2093.7 1047.3" fill="#175294"/>
            <rect x="2088.8" y="1016.8" width="0" height="30.1" transform="translate(-203.1 613.4) rotate(-15.9)" fill="#175294"/>
            <polygon points="2094.2 1046.1 2093.9 1045 2094.2 1046.1 2094.2 1046.1" fill="#175294"/>
            <polygon points="2086 1017.4 2086 1017.4 2093.9 1045 2086 1017.4" fill="#175294"/>
            <polygon points="2069.1 1062.4 2086.4 1051.8 2069.1 1062.4 2069.1 1062.4" fill="#175294"/>
            <path d="M2115.2,1054l-8.6-30.2h-.3c0,0-20.7-7.9-20.7-7.9l-.6-.2-.7.4-26,16v.4c.1,0,8.6,29.8,8.6,29.8l.2.8.6.2,21,7.9.2-.2,25.8-15.8.7-.4-.2-.8ZM2059.7,1032.6l24.9-15.3h0s8.3,28.9,8.3,28.9l-24.9,15.3-8.3-28.9ZM2088.6,1069.7l-19.5-7.3h0s17.4-10.6,17.4-10.6l7.3-4.5h0s4.4,1.7,4.4,1.7l15.1,5.7-24.7,15.1ZM2101.3,1048.8l-7.1-2.7h0s-.3-1.1-.3-1.1l-7.9-27.6h0s19.5,7.4,19.5,7.4l8.2,28.7-12.5-4.7Z" fill="#98add4"/>
          </g>
          <path d="M2106.6,1023.8h-.3c0-.1-.3-.2-.3-.2l-21-7.9h-.2c0,.1-25.8,16-25.8,16l-.7.4v.5c.1,0,.2.3.2.3l8.6,30.2,21,7.9.6.2.3-.2.4-.2,26-16-8.6-30.2-.2-.8ZM2089,1069.5l-8.3-28.9h0s24.9-15.3,24.9-15.3l8.3,28.9-24.9,15.3h0ZM2079.5,1040.7l.9,3.1,7.3,25.6h0s-19.6-7.4-19.6-7.4l-8.2-28.7,19.6,7.4ZM2104.6,1024.4h0s-16.5,10.1-16.5,10.1l-8.2,5-19.5-7.3,24.7-15.1,19.5,7.3Z" fill="#98add4"/>
        </g>
        <g isolation="isolate">
          <path d="M1855,1190.7l54.4,13,17,37.5-27.6,49.7-.3.6-54-13h-.4c0,0-16.8-37.1-16.8-37.1h0c0,0-.2-.4-.2-.4l27.9-50.3ZM1829.4,1240.4l51.6,12.4,26.5-47.7-51.6-12.4-26.5,47.7ZM1845.3,1276.9l51.2,12.3-15.7-34.7-51.2-12.3,15.7,34.7ZM1882.4,1253.8l15.7,34.7,26.3-47.4-15.7-34.7-26.3,47.4Z" fill="#5386b4"/>
          <g>
            <path d="M1888.3,1253.9h0c1.6-1.4,4-1.3,5.5.3l5.2,5.8c1.4,1.6,1.3,4-.3,5.5h0c-1.6,1.4-4,1.3-5.5-.3l-5.2-5.8c-1.4-1.6-1.3-4,.3-5.5Z" fill="#e9f0f7"/>
            <path d="M1894.5,1241.6h0c.1-2.1,1.9-3.8,4.1-3.7l7.7.4c2.1.1,3.8,1.9,3.7,4.1h0c-.1,2.1-1.9,3.8-4.1,3.7l-7.7-.4c-2.1-.1-3.8-1.9-3.7-4.1Z" fill="#e9f0f7"/>
            <path d="M1890.1,1228.5h0c-1.4-1.6-1.3-4,.3-5.5l5.8-5.2c1.6-1.4,4-1.3,5.5.3h0c1.4,1.6,1.3,4-.3,5.5l-5.8,5.2c-1.6,1.4-4,1.3-5.5-.3Z" fill="#e9f0f7"/>
            <path d="M1877.8,1222.3h0c-2.1-.1-3.8-1.9-3.7-4.1l.4-7.7c.1-2.1,1.9-3.8,4.1-3.7h0c2.1.1,3.8,1.9,3.7,4.1l-.4,7.7c-.1,2.1-1.9,3.8-4.1,3.7Z" fill="#e9f0f7"/>
            <path d="M1864.7,1226.7h0c-1.6,1.4-4,1.3-5.5-.3l-5.2-5.8c-1.4-1.6-1.3-4,.3-5.5h0c1.6-1.4,4-1.3,5.5.3l5.2,5.8c1.4,1.6,1.3,4-.3,5.5Z" fill="#e9f0f7"/>
            <path d="M1858.5,1239h0c-.1,2.1-1.9,3.8-4.1,3.7l-7.7-.4c-2.1-.1-3.8-1.9-3.7-4.1h0c.1-2.1,1.9-3.8,4.1-3.7l7.7.4c2.1.1,3.8,1.9,3.7,4.1Z" fill="#e9f0f7"/>
            <path d="M1862.9,1252.1h0c1.4,1.6,1.3,4-.3,5.5l-5.8,5.2c-1.6,1.4-4,1.3-5.5-.3h0c-1.4-1.6-1.3-4,.3-5.5l5.8-5.2c1.6-1.4,4-1.3,5.5.3Z" fill="#e9f0f7"/>
            <path d="M1875.2,1258.3h0c2.1.1,3.8,1.9,3.7,4.1l-.4,7.7c-.1,2.1-1.9,3.8-4.1,3.7h0c-2.1-.1-3.8-1.9-3.7-4.1l.4-7.7c.1-2.1,1.9-3.8,4.1-3.7Z" fill="#e9f0f7"/>
          </g>
          <path d="M1855,1190.7l54.4,13,17,37.5-27.6,49.7-.3.6-54.4-13-16.8-37.2-.2-.3,27.9-50.3ZM1829,1241l15.7,34.7,26.3-47.4-15.7-34.7-26.3,47.4ZM1872.7,1227.6l51.2,12.3-15.7-34.7-51.2-12.3,15.7,34.7ZM1846,1277.1l51.6,12.4,26.5-47.7-51.6-12.4-26.5,47.7Z" fill="#5386b4"/>
        </g>
      </g>
      <g>
        <polygon points="2066.5 1192.8 1727.8 1110 1725.6 1112.4 2060.2 1193.1 2066.5 1192.8" fill="#5386b4"/>
        <g>
          <path d="M1682.6,1088.8h0c-1.5.8-3.4.3-4.2-1.2l-3-5.4c-.8-1.5-.3-3.4,1.2-4.2h0c1.5-.8,3.4-.3,4.2,1.2l3,5.4c.8,1.5.3,3.4-1.2,4.2Z" fill="#e9f0f7"/>
          <path d="M1675.6,1097.3h0c-.5,1.6-2.2,2.6-3.8,2.1l-5.9-1.7c-1.6-.5-2.6-2.2-2.1-3.8h0c.5-1.6,2.2-2.6,3.8-2.1l5.9,1.7c1.6.5,2.6,2.2,2.1,3.8Z" fill="#e9f0f7"/>
          <path d="M1676.7,1108.2h0c.8,1.5.3,3.4-1.2,4.2l-5.4,3c-1.5.8-3.4.3-4.2-1.2h0c-.8-1.5-.3-3.4,1.2-4.2l5.4-3c1.5-.8,3.4-.3,4.2,1.2Z" fill="#e9f0f7"/>
          <path d="M1685.1,1115.2h0c1.6.5,2.6,2.2,2.1,3.8l-1.7,5.9c-.5,1.6-2.2,2.6-3.8,2.1h0c-1.6-.5-2.6-2.2-2.1-3.8l1.7-5.9c.5-1.6,2.2-2.6,3.8-2.1Z" fill="#e9f0f7"/>
          <path d="M1696,1114.2h0c1.5-.8,3.4-.3,4.2,1.2l3,5.4c.8,1.5.3,3.4-1.2,4.2h0c-1.5.8-3.4.3-4.2-1.2l-3-5.4c-.8-1.5-.3-3.4,1.2-4.2Z" fill="#e9f0f7"/>
          <path d="M1703,1105.7h0c.5-1.6,2.2-2.6,3.8-2.1l5.9,1.7c1.6.5,2.6,2.2,2.1,3.8h0c-.5,1.6-2.2,2.6-3.8,2.1l-5.9-1.7c-1.6-.5-2.6-2.2-2.1-3.8Z" fill="#e9f0f7"/>
          <path d="M1702,1094.8h0c-.8-1.5-.3-3.4,1.2-4.2l5.4-3c1.5-.8,3.4-.3,4.2,1.2h0c.8,1.5.3,3.4-1.2,4.2l-5.4,3c-1.5.8-3.4.3-4.2-1.2Z" fill="#e9f0f7"/>
          <path d="M1693.6,1087.8h0c-1.6-.5-2.6-2.2-2.1-3.8l1.7-5.9c.5-1.6,2.2-2.6,3.8-2.1h0c1.6.5,2.6,2.2,2.1,3.8l-1.7,5.9c-.5,1.6-2.2,2.6-3.8,2.1Z" fill="#e9f0f7"/>
        </g>
        <g>
          <g>
            <polygon points="1696.6 1141.8 1659.4 1123.1 1688.2 1091.3 1725.4 1110 1696.6 1141.8" fill="none"/>
            <polygon points="1699.7 1095.1 1688.8 1089.6 1688.8 1089.6 1699.7 1095.1" fill="#175294"/>
            <polygon points="1687 1090 1684.9 1079.4 1687 1090 1687 1090" fill="#175294"/>
            <polygon points="1688.8 1089.6 1687.5 1083 1688.8 1089.6 1688.8 1089.6" fill="#175294"/>
            <rect x="1652.3" y="1107.2" width="42.9" height="0" transform="translate(-270.8 1603.2) rotate(-47.8)" fill="#175294"/>
            <polygon points="1687 1090 1685.9 1091.2 1687 1090 1687 1090" fill="#175294"/>
            <polygon points="1658.5 1121.5 1658.5 1121.5 1685.9 1091.2 1658.5 1121.5" fill="#175294"/>
            <polygon points="1725.6 1108.1 1699.7 1095.1 1725.6 1108.1 1725.6 1108.1" fill="#175294"/>
            <path d="M1650.7,1091.7v.4c0,0,6.2,31,6.2,31l.2.9,1,.5,38.9,19.5.4-.4,29.6-32.7.8-.8-.2-.9-6.2-31.4-.4-.2-38.5-19.3-1-.5-.8.8-30.1,33.1ZM1725.6,1108.1l-25.9-13-10.9-5.5h0s0,0,0,0l-1.3-6.6-4.5-22.6,36.9,18.5,5.8,29.2h0ZM1659.4,1123.1l28.8-31.8,37.2,18.7-28.8,31.8-37.2-18.7h0ZM1652.7,1092.3l28.6-31.5,3.7,18.6,2.1,10.6h0s-1.1,1.2-1.1,1.2l-27.5,30.3h0s-5.8-29.2-5.8-29.2Z" fill="#98add4"/>
          </g>
          <path d="M1650.7,1091.7v.4c0,0,.2.4.2.4l6.2,31.4.3.2,38.5,19.3,1,.5.5-.5.3-.3,30.1-33.1-6.2-31.4-.2-.9-.4-.2-.6-.3-38.9-19.5-30.1,33.1-.8.8ZM1719.2,1078.6l-28.8,31.7h0s-37.2-18.7-37.2-18.7l28.8-31.8,37.2,18.7h0ZM1691.5,1111.8l3-3.4,25.5-28.1h0s5.8,29.2,5.8,29.2l-28.6,31.5-5.8-29.2ZM1652.9,1093.6h0s24.7,12.4,24.7,12.4l12.2,6.1,5.8,29.2-36.9-18.5-5.8-29.2Z" fill="#98add4"/>
        </g>
        <g isolation="isolate">
          <path d="M2041.8,1270.8l-25.1-75.6,32.6-48.8,80.9-3.9h.9s24.9,75.1,24.9,75.1l.2.5-32.2,48.2h0c0,.1-.3.6-.3.6l-81.8,4ZM2121.3,1264.4l-23.8-71.7-77.7,3.8,23.8,71.7,77.7-3.8ZM2153.5,1217.6l-23.6-71.2-30.2,45.1,23.6,71.2,30.2-45.1ZM2097.7,1190.2l30.2-45.2-77.2,3.8-30.2,45.2,77.2-3.8Z" fill="#5386b4"/>
          <g>
            <path d="M2093.3,1182.9h0c-2.9-.9-4.6-3.9-3.7-6.8l3.1-10.6c.9-2.9,3.9-4.6,6.8-3.7h0c2.9.9,4.6,3.9,3.7,6.8l-3.1,10.6c-.9,2.9-3.9,4.6-6.8,3.7Z" fill="#e9f0f7"/>
            <path d="M2073.8,1184.7h0c-2.7,1.5-6,.5-7.5-2.2l-5.3-9.7c-1.5-2.7-.5-6,2.2-7.5h0c2.7-1.5,6-.5,7.5,2.2l5.3,9.7c1.5,2.7.5,6-2.2,7.5Z" fill="#e9f0f7"/>
            <path d="M2061.2,1199.8h0c-.9,2.9-3.9,4.6-6.8,3.7l-10.6-3.1c-2.9-.9-4.6-3.9-3.7-6.8h0c.9-2.9,3.9-4.6,6.8-3.7l10.6,3.1c2.9.9,4.6,3.9,3.7,6.8Z" fill="#e9f0f7"/>
            <path d="M2063,1219.4h0c1.5,2.7.5,6-2.2,7.5l-9.7,5.3c-2.7,1.5-6,.5-7.5-2.2h0c-1.5-2.7-.5-6,2.2-7.5l9.7-5.3c2.7-1.5,6-.5,7.5,2.2Z" fill="#e9f0f7"/>
            <path d="M2078.1,1232h0c2.9.9,4.6,3.9,3.7,6.8l-3.1,10.6c-.9,2.9-3.9,4.6-6.8,3.7h0c-2.9-.9-4.6-3.9-3.7-6.8l3.1-10.6c.9-2.9,3.9-4.6,6.8-3.7Z" fill="#e9f0f7"/>
            <path d="M2097.7,1230.2h0c2.7-1.5,6-.5,7.5,2.2l5.3,9.7c1.5,2.7.5,6-2.2,7.5h0c-2.7,1.5-6,.5-7.5-2.2l-5.3-9.7c-1.5-2.7-.5-6,2.2-7.5Z" fill="#e9f0f7"/>
            <path d="M2110.3,1215h0c.9-2.9,3.9-4.6,6.8-3.7l10.6,3.1c2.9.9,4.6,3.9,3.7,6.8h0c-.9,2.9-3.9,4.6-6.8,3.7l-10.6-3.1c-2.9-.9-4.6-3.9-3.7-6.8Z" fill="#e9f0f7"/>
            <path d="M2108.5,1195.4h0c-1.5-2.7-.5-6,2.2-7.5l9.7-5.3c2.7-1.5,6-.5,7.5,2.2h0c1.5,2.7.5,6-2.2,7.5l-9.7,5.3c-2.7,1.5-6,.5-7.5-2.2Z" fill="#e9f0f7"/>
          </g>
          <path d="M2041.8,1270.8l-25.1-75.6,32.6-48.8,80.9-3.9h.9s25.1,75.6,25.1,75.6l-32.3,48.3-.3.4-81.8,4ZM2122.3,1264.4l30.2-45.2-77.2,3.8-30.2,45.2,77.2-3.8ZM2073.3,1221.5l-23.6-71.2-30.2,45.1,23.6,71.2,30.2-45.1ZM2153.2,1216.6l-23.8-71.7-77.7,3.8,23.8,71.7,77.7-3.8Z" fill="#5386b4"/>
        </g>
      </g>
      <g>
        <g>
          <g>
            <polygon points="1886.5 85.8 1519.4 209.2 1518.8 212.8 1880.8 89.8 1886.5 85.8" fill="#5386b4"/>
            <g>
              <path d="M1464.4,216.2h0c-.9,1.6-3,2.2-4.6,1.3l-6-3.3c-1.6-.9-2.2-3-1.3-4.6h0c.9-1.6,3-2.2,4.6-1.3l6,3.3c1.6.9,2.2,3,1.3,4.6Z" fill="#e9f0f7"/>
              <path d="M1462.9,228.3h0c.5,1.8-.5,3.7-2.3,4.2l-6.6,1.9c-1.8.5-3.7-.5-4.2-2.3h0c-.5-1.8.5-3.7,2.3-4.2l6.6-1.9c1.8-.5,3.7.5,4.2,2.3Z" fill="#e9f0f7"/>
              <path d="M1470.3,237.9h0c1.6.9,2.2,3,1.3,4.6l-3.3,6c-.9,1.6-3,2.2-4.6,1.3h0c-1.6-.9-2.2-3-1.3-4.6l3.3-6c.9-1.6,3-2.2,4.6-1.3Z" fill="#e9f0f7"/>
              <path d="M1482.4,239.5h0c1.8-.5,3.7.5,4.2,2.3l1.9,6.6c.5,1.8-.5,3.7-2.3,4.2h0c-1.8.5-3.7-.5-4.2-2.3l-1.9-6.6c-.5-1.8.5-3.7,2.3-4.2Z" fill="#e9f0f7"/>
              <path d="M1492,232h0c.9-1.6,3-2.2,4.6-1.3l6,3.3c1.6.9,2.2,3,1.3,4.6h0c-.9,1.6-3,2.2-4.6,1.3l-6-3.3c-1.6-.9-2.2-3-1.3-4.6Z" fill="#e9f0f7"/>
              <path d="M1493.6,220h0c-.5-1.8.5-3.7,2.3-4.2l6.6-1.9c1.8-.5,3.7.5,4.2,2.3h0c.5,1.8-.5,3.7-2.3,4.2l-6.6,1.9c-1.8.5-3.7-.5-4.2-2.3Z" fill="#e9f0f7"/>
              <path d="M1486.1,210.3h0c-1.6-.9-2.2-3-1.3-4.6l3.3-6c.9-1.6,3-2.2,4.6-1.3h0c1.6.9,2.2,3,1.3,4.6l-3.3,6c-.9,1.6-3,2.2-4.6,1.3Z" fill="#e9f0f7"/>
              <path d="M1474.1,208.8h0c-1.8.5-3.7-.5-4.2-2.3l-1.9-6.6c-.5-1.8.5-3.7,2.3-4.2h0c1.8-.5,3.7.5,4.2,2.3l1.9,6.6c.5,1.8-.5,3.7-2.3,4.2Z" fill="#e9f0f7"/>
            </g>
            <g>
              <polygon points="1484.2 212 1470.7 213.3 1470.7 213.3 1484.2 212" fill="#175294"/>
              <polygon points="1469.2 214.7 1461 206 1469.2 214.7 1469.2 214.7" fill="#175294"/>
              <polygon points="1470.7 213.3 1465.5 207.9 1470.7 213.3 1470.7 213.3" fill="#175294"/>
              <rect x="1443.2" y="238.7" width="47.6" height="0" transform="translate(980.2 1643.1) rotate(-80.1)" fill="#175294"/>
              <polygon points="1469.2 214.7 1468.9 216.4 1469.2 214.7 1469.2 214.7" fill="#175294"/>
              <polygon points="1461.1 261.2 1461.1 261.2 1468.9 216.4 1461.1 261.2" fill="#175294"/>
              <polygon points="1516.3 208.8 1484.2 212 1516.3 208.8 1516.3 208.8" fill="#175294"/>
              <path d="M1436.2,237.9l.3.3,24.2,25.4.7.7h1.2c0-.1,48.1-4.9,48.1-4.9v-.7c.1,0,8.5-48.3,8.5-48.3l.2-1.2-.7-.7-24.5-25.8h-.5c0,0-47.6,4.8-47.6,4.8h-1.2c0,.1-.2,1.3-.2,1.3l-8.5,49ZM1516.3,208.8l-32.1,3.2-13.5,1.3h0s0,0,0,0l-5.1-5.4-17.6-18.5,45.6-4.5,22.8,23.9h0ZM1462.9,262.2l8.2-46.9,46-4.6-8.2,46.9-46,4.6h0ZM1438.3,237.2l8.1-46.5,14.5,15.3,8.3,8.7h0s-.3,1.8-.3,1.8l-7.8,44.8h0s-22.8-24-22.8-24Z" fill="#98add4"/>
              <path d="M1436.2,237.9l.3.4.3.3,24.5,25.7h.4s47.7-4.8,47.7-4.8h1.2c0-.1.1-.9.1-.9v-.5c0,0,8.6-49,8.6-49l-24.5-25.7-.7-.7h-.5c0,0-.7.1-.7.1l-48.1,4.8-8.5,49-.2,1.2ZM1492.7,184.9l-8.2,46.9h0s-46,4.6-46,4.6l8.2-46.9,46-4.6h0ZM1486.4,232.4l.9-5,7.2-41.6h0s22.8,24,22.8,24l-8.1,46.5-22.8-24ZM1439.4,238.3h0s30.5-3,30.5-3l15.1-1.5,22.8,23.9-45.6,4.5-22.8-23.9Z" fill="#98add4"/>
            </g>
            <g isolation="isolate">
              <path d="M1909.7,173.6l-68.5-56.1,1.6-65.2L1916.4.6,1917.2,0l68,55.7.5.4-1.6,64.4v.2s0,.6,0,.6l-74.4,52.4ZM1980.5,120.4l-64.9-53.2-70.7,49.7,64.9,53.2,70.7-49.7ZM1982.9,57.4l-64.5-52.8-1.5,60.3,64.5,52.8,1.5-60.3ZM1914.2,64.8l1.5-60.4-70.2,49.4-1.5,60.4,70.2-49.4Z" fill="#5386b4"/>
              <g>
                <path d="M1905.8,60.5h0c-3.3.9-6.6-.9-7.6-4.2l-3.4-11.8c-.9-3.3.9-6.6,4.2-7.6h0c3.3-.9,6.6.9,7.6,4.2l3.4,11.8c.9,3.3-.9,6.6-4.2,7.6Z" fill="#e9f0f7"/>
                <path d="M1888.5,73.8h0c-1.6,3-5.4,4-8.3,2.4l-10.7-5.9c-3-1.6-4-5.4-2.4-8.3h0c1.6-3,5.4-4,8.3-2.4l10.7,5.9c3,1.6,4,5.4,2.4,8.3Z" fill="#e9f0f7"/>
                <path d="M1885.7,95.5h0c.9,3.3-.9,6.6-4.2,7.6l-11.8,3.4c-3.3.9-6.6-.9-7.6-4.2h0c-.9-3.3.9-6.6,4.2-7.6l11.8-3.4c3.3-.9,6.6.9,7.6,4.2Z" fill="#e9f0f7"/>
                <path d="M1899,112.8h0c3,1.6,4,5.4,2.4,8.3l-5.9,10.7c-1.6,3-5.4,4-8.3,2.4h0c-3-1.6-4-5.4-2.4-8.3l5.9-10.7c1.6-3,5.4-4,8.3-2.4Z" fill="#e9f0f7"/>
                <path d="M1920.7,115.6h0c3.3-.9,6.6.9,7.6,4.2l3.4,11.8c.9,3.3-.9,6.6-4.2,7.6h0c-3.3.9-6.6-.9-7.6-4.2l-3.4-11.8c-.9-3.3.9-6.6,4.2-7.6Z" fill="#e9f0f7"/>
                <path d="M1938,102.3h0c1.6-3,5.4-4,8.3-2.4l10.7,5.9c3,1.6,4,5.4,2.4,8.3h0c-1.6,3-5.4,4-8.3,2.4l-10.7-5.9c-3-1.6-4-5.4-2.4-8.3Z" fill="#e9f0f7"/>
                <path d="M1940.8,80.6h0c-.9-3.3.9-6.6,4.2-7.6l11.8-3.4c3.3-.9,6.7.9,7.6,4.2h0c.9,3.3-.9,6.6-4.2,7.6l-11.8,3.4c-3.3.9-6.6-.9-7.6-4.2Z" fill="#e9f0f7"/>
                <path d="M1927.5,63.3h0c-3-1.6-4-5.4-2.4-8.3l5.9-10.7c1.6-3,5.4-4,8.3-2.4h0c3,1.6,4,5.4,2.4,8.3l-5.9,10.7c-1.6,3-5.4,4-8.3,2.4Z" fill="#e9f0f7"/>
              </g>
              <path d="M1909.7,173.6l-68.5-56.1,1.6-65.2L1916.4.6l.9-.6,68.5,56.1-1.6,64.6v.6s-74.4,52.4-74.4,52.4ZM1981.4,119.8l1.5-60.4-70.2,49.4-1.5,60.4,70.2-49.4ZM1909.9,108.7l-64.5-52.8-1.5,60.3,64.5,52.8,1.5-60.3ZM1982.1,56.6l-64.9-53.2-70.7,49.7,64.9,53.2,70.7-49.7Z" fill="#5386b4"/>
            </g>
          </g>
          <g>
            <path d="M1946.8,288.8l-98.2,327.5-293.7,28.9,98.2-327.5,293.7-28.9h0ZM1985.9,256.6l-354.3,34.8-115.6,385.9,354.3-34.8,115.6-385.9h0Z" fill="#114077"/>
            <path d="M1999.7,308.6l200.2,190.2-97.5,325.4-200.2-190.2,97.5-325.4h0ZM1985.9,256.6l-115.6,385.9,246,233.7,115.6-385.9-246-233.7h0Z" fill="#175294"/>
            <path d="M1860.2,671.8l192,182.4-280.2,27.5-192-182.4,280.2-27.5h0ZM1870.2,642.5l-354.3,34.8,246,233.7,354.3-34.8-246-233.7h0Z" fill="#071f3b"/>
            <g>
              <polygon points="1655.2 640.3 1725.5 405.5 1942 384.3 2092.6 527.4 2022.2 762.1 1805.8 783.4 1655.2 640.3" fill="#fbc977"/>
              <polygon points="1725.5 405.5 1876.1 548.6 1805.8 783.4 1655.2 640.3 1725.5 405.5" fill="#ff8666"/>
              <polygon points="1876.1 548.6 2092.6 527.4 2022.2 762.1 1805.8 783.4 1876.1 548.6" fill="#c42545"/>
            </g>
            <path d="M2192.8,522.5l-98.2,327.5-293.7,28.9,98.2-327.5,293.7-28.9h0ZM2231.8,490.4l-354.3,34.8-115.6,385.9,354.3-34.8,115.6-385.9h0Z" fill="#0c3461"/>
            <path d="M1975.8,285.9l192,182.4-280.2,27.5-192-182.4,280.2-27.5h0ZM1985.9,256.6l-354.3,34.8,246,233.7,354.3-34.8-246-233.7h0Z" fill="#27639e"/>
            <path d="M1645.4,343.4l200.2,190.2-97.5,325.4-200.2-190.2,97.5-325.4h0ZM1631.6,291.4l-115.6,385.9,246,233.7,115.6-385.9-246-233.7h0Z" fill="#5386b4"/>
          </g>
        </g>
        <g>
          <path d="M1610.3,408.9c13.5,7.8,24.4,26.7,24.4,42.2,0,15.5-11,21.8-24.5,14-13.5-7.8-24.4-26.7-24.4-42.2,0-15.5,11-21.8,24.5-14Z" fill="#e9f0f7"/>
          <path d="M1683.1,450.8c13.5,7.8,24.4,26.7,24.4,42.2,0,15.5-11,21.8-24.5,14-13.5-7.8-24.4-26.7-24.4-42.2,0-15.5,11-21.8,24.5-14Z" fill="#e9f0f7"/>
          <path d="M1755.8,492.8c13.5,7.8,24.4,26.7,24.4,42.2,0,15.5-11,21.8-24.5,14-13.5-7.8-24.4-26.7-24.4-42.2,0-15.5,11-21.8,24.5-14Z" fill="#e9f0f7"/>
          <path d="M1774.5,462.2c19.6,11.3,35.3,38.6,35.3,61.1l-.2,57.7c0,22.5-16,31.5-35.5,20.2l-182.8-105.5c-19.5-11.3-35.3-38.6-35.3-61.1l.2-57.7c0-22.5,16-31.5,35.5-20.2l182.8,105.5ZM1610.2,465.1c13.5,7.8,24.5,1.5,24.5-14,0-15.5-10.9-34.4-24.4-42.2-13.5-7.8-24.5-1.5-24.5,14,0,15.5,10.9,34.4,24.4,42.2h0ZM1755.6,549c13.5,7.8,24.5,1.5,24.5-14,0-15.5-10.9-34.4-24.4-42.2-13.5-7.8-24.5-1.5-24.5,14,0,15.5,10.9,34.4,24.4,42.2h0ZM1682.9,507c13.5,7.8,24.5,1.5,24.5-14,0-15.5-10.9-34.4-24.4-42.2-13.5-7.8-24.5-1.5-24.5,14,0,15.5,10.9,34.4,24.4,42.2h0Z" fill="#66ffa1"/>
        </g>
      </g>
    </g>
    <g>
      <g>
        <g>
          <path d="M1203.9,2215.9c-79.4-27.4-70.7-31.8-205.7-106.1-82.9-45.7-149.6-87.7-198.3-124.9-35.6-27.3-63.1-52.9-83.9-78.5-53.3-65.4-58.6-126.5-53.6-166.1,7.3-58,39.7-107.9,91.3-140.6,29.3-18.5,64.3-31.2,106.9-38.6,136.3-23.7,308.4-18.3,511.4,16,146.5,24.7,256,55.9,260.6,57.2l-44.5,155.5-108.1,99.6c-142.2-68.1-285.6-7.6-299-9.6,74.1,37,117.3,66.9,172,92.4,54.7,25.5-69.6,271.1-149,243.7Z" fill="#0c3461"/>
          <g>
            <path d="M1351.2,2003.3c21.3,9.7,38.3-4.3,38.3-4.3,20.3-13.6,39.2-33.7,87.8-34.7,48.6-1.1,69.9,39.1,81,73.5,11,34.4,1.8,82.5-7.7,107.8-9.5,25.3-14.8,30.9-19.8,77.5-3.5,32.9,1.6,70.3-1.8,134-3.4,63.9-7.1,108.4-39.9,130.6-21.2,14.3-77.2,24.9-120.9-19.9-40.6-41.5-47.6-115.6-53.2-164.2-5.6-48.7-53.7-87-73.1-98.7-56.1-33.7,61.7-223.2,109.3-201.6Z" fill="#071f3b"/>
            <path d="M1550.6,2145.6c-9.5,25.3-14.8,30.9-19.8,77.5-3.5,32.8,1.6,70.3-1.8,133.9-3.4,63.9-7.1,108.4-39.9,130.6-.3.2-.6.4-.9.6t0,0c-12.1,3.3-25.9,1.9-41.6-6.1-88.7-44.6-65-153.1-37.3-223.7,18.6-47.3,29.7-97.3,32.5-148,3.1-57.7,32.3-146.1,71.5-137.7,24.2,13.4,37.2,40.7,45,65.1,11,34.4,1.8,82.5-7.7,107.8Z" fill="#175294"/>
          </g>
        </g>
        <path d="M1383.5,1533.3s-49.9,138.9-61.4,185.1c-24.6,98.3,334.2,268.6,375.8,292.6,41.6,24,153.9-1.1,187.1-96.6,33.3-95.5,33.5-188,22.3-250.2-5.9-32.6-335.3-192.2-434.3-191.8-33.6.2-68.6,5.5-89.4,60.9Z" fill="#114077"/>
        <g>
          <path d="M1386.4,1937.5c.8-32.8-4.3-53.4-27.9-75.5-20.2-18.9-49.8-24.3-92.6-16.6-72.3,13-132.9,17.9-155.9,17.1-56.7-1.9-147.6-50.8-250.1,24.8-102.5,75.7-67.4,160.7,42,178.5,61.2,10,143.3-18.6,283,31.3,15.7,5.6,49.4,25.1,67.7,39.8,68.6,54.8,199.6-105.6,130-133.8l3.8-65.5Z" fill="#071f3b"/>
          <path d="M1197.6,2123.4c-39.4-31.4,120.9-217.7,191.8-174.6,212.8,129.3,247.4,107.9,247.4,107.9,0,0,48.2-32.6-43.7-101.3l192.6-303.6c3.1,2.9,62.4,29.2,149.1,99.1,128.8,103.7,202.9,420.8,61.5,553.4-74,69.4-353.3,174-798.7-180.9Z" fill="#114077"/>
        </g>
      </g>
      <g>
        <g>
          <g>
            <path d="M584.9,1904.1c0,2.6,1.7,5.2,5.1,7.2,0,0,588.5,339.8,588.5,339.8,3.6,2,7.9,2.9,12.1,2.9,4.3,0,8.7-.9,12.4-2.9,0,0,395.7-230,395.7-230,2.6-1.6,5-3.9,5.1-7.1,0,0,0,15.9,0,15.9,0,1.5-.6,2.9-1.6,4.1-.9,1.2-2.2,2.1-3.5,2.9-4.9,2.2-394.5,230.4-399.5,231.6-5.2,1.6-10.8,1.7-16.1.2-4.8-.6-588.5-339.8-593.1-341.7-3.4-2-5.1-4.6-5.1-7.2,0,0,0-15.9,0-15.9Z" fill="#aec7e6"/>
            <path d="M1598.7,2006.8c6.8,3.9,6.8,10.3,0,14.2l-395.7,230c-6.7,3.9-17.7,3.9-24.5,0l-588.5-339.8c-6.8-3.9-6.8-10.3-.1-14.2l395.7-230c6.8-3.9,17.8-3.9,24.6,0l588.5,339.8Z" fill="#e9f0f7"/>
          </g>
          <g>
            <polygon points="897.8 1755 670.2 1886.4 1215.3 2201.1 1442.9 2069.7 897.8 1755" fill="#aec7e6"/>
            <g>
              <g>
                <path d="M921.7,1780.1c2.7-1.6,3-3.9.7-5.3l-20.9-12.1c-2.3-1.4-6.5-1.2-9.2.4l-24.2,13.9c-2.7,1.6-3,3.9-.7,5.3l20.9,12.1c2.3,1.4,6.5,1.2,9.2-.4l24.2-13.9Z" fill="#0c3461"/>
                <path d="M956.4,1800.2c2.7-1.6,3-3.9.7-5.3l-20.9-12.1c-2.3-1.4-6.5-1.2-9.2.4l-24.2,13.9c-2.7,1.6-3,3.9-.7,5.3l20.9,12.1c2.3,1.4,6.5,1.2,9.2-.4l24.2-13.9Z" fill="#0c3461"/>
                <path d="M991.2,1820.3c2.7-1.6,3-3.9.7-5.3l-20.9-12.1c-2.3-1.4-6.5-1.2-9.2.4l-24.2,13.9c-2.7,1.6-3,3.9-.7,5.3l20.9,12.1c2.3,1.4,6.5,1.2,9.2-.4l24.2-13.9Z" fill="#0c3461"/>
                <path d="M1324.7,2012.8c2.7-1.6,3-3.9.7-5.3l-20.9-12.1c-2.3-1.4-6.5-1.2-9.2.4l-24.2,13.9c-2.7,1.6-3,3.9-.7,5.3l20.9,12.1c2.3,1.4,6.5,1.2,9.2-.4l24.2-13.9Z" fill="#0c3461"/>
                <path d="M1053.7,1856.3c2.7-1.6,3-3.9.7-5.3l-48.6-28.1c-2.3-1.4-6.5-1.2-9.2.4l-24.2,13.9c-2.7,1.6-3,3.9-.7,5.3l48.6,28.1c2.3,1.4,6.5,1.2,9.2-.4l24.2-13.9Z" fill="#0c3461"/>
                <path d="M1290,1992.8c2.7-1.6,3-3.9.7-5.3l-48.6-28.1c-2.3-1.4-6.5-1.2-9.2.4l-24.2,13.9c-2.7,1.6-3,3.9-.7,5.3l48.6,28.1c2.3,1.4,6.5,1.2,9.2-.4l24.2-13.9Z" fill="#0c3461"/>
                <path d="M1227.5,1956.7c2.7-1.6,3-3.9.7-5.3l-160-92.4c-2.3-1.4-6.5-1.2-9.2.4l-24.2,13.9c-2.7,1.6-3,3.9-.7,5.3l160,92.4c2.3,1.4,6.5,1.2,9.2-.4l24.2-13.9Z" fill="#0c3461"/>
                <path d="M1359.5,2032.9c2.7-1.6,3-3.9.7-5.3l-20.9-12.1c-2.3-1.4-6.5-1.2-9.2.4l-7.2,4.1c-2.7,1.6-3,3.9-.7,5.3l20.9,12.1c2.3,1.4,6.5,1.2,9.2-.4l7.2-4.1Z" fill="#0c3461"/>
                <path d="M1394.3,2053c2.7-1.6,3-3.9.7-5.3l-20.9-12.1c-2.3-1.4-6.5-1.2-9.2.4l-7.2,4.1c-2.7,1.6-3,3.9-.7,5.3l20.9,12.1c2.3,1.4,6.5,1.2,9.2-.4l7.2-4.1Z" fill="#0c3461"/>
                <path d="M1377.3,2062.8c2.7-1.6,3-3.9.7-5.3l-20.9-12.1c-2.3-1.4-6.5-1.2-9.2.4l-7.2,4.1c-2.7,1.6-3,3.9-.7,5.3l20.9,12.1c2.3,1.4,6.5,1.2,9.2-.4l7.2-4.1Z" fill="#0c3461"/>
                <path d="M1429.1,2073.1c2.7-1.6,3-3.9.7-5.3l-20.9-12.1c-2.3-1.4-6.5-1.2-9.2.4l-7.2,4.1c-2.7,1.6-3,3.9-.7,5.3l20.9,12.1c2.3,1.4,6.5,1.2,9.2-.4l7.2-4.1Z" fill="#0c3461"/>
              </g>
              <g>
                <path d="M724.9,1898.3c2.7-1.6,3-3.9.7-5.3l-24.9-14.4c-2.3-1.4-6.5-1.2-9.2.4l-7.2,4.1c-2.7,1.6-3,3.9-.7,5.3l24.9,14.4c2.3,1.4,6.5,1.2,9.2-.4l7.2-4.1Z" fill="#0c3461"/>
                <path d="M763.6,1920.7c2.7-1.6,3-3.9.7-5.3l-24.9-14.4c-2.3-1.4-6.5-1.2-9.2.4l-7.2,4.1c-2.7,1.6-3,3.9-.7,5.3l24.9,14.4c2.3,1.4,6.5,1.2,9.2-.4l7.2-4.1Z" fill="#0c3461"/>
                <path d="M802.4,1943.1c2.7-1.6,3-3.9.7-5.3l-24.9-14.4c-2.3-1.4-6.5-1.2-9.2.4l-7.2,4.1c-2.7,1.6-3,3.9-.7,5.3l24.9,14.4c2.3,1.4,6.5,1.2,9.2-.4l7.2-4.1Z" fill="#0c3461"/>
                <path d="M841.1,1965.4c2.7-1.6,3-3.9.7-5.3l-24.9-14.4c-2.3-1.4-6.5-1.2-9.2.4l-7.2,4.1c-2.7,1.6-3,3.9-.7,5.3l24.9,14.4c2.3,1.4,6.5,1.2,9.2-.4l7.2-4.1Z" fill="#0c3461"/>
                <path d="M879.8,1987.8c2.7-1.6,3-3.9.7-5.3l-24.9-14.4c-2.3-1.4-6.5-1.2-9.2.4l-7.2,4.1c-2.7,1.6-3,3.9-.7,5.3l24.9,14.4c2.3,1.4,6.5,1.2,9.2-.4l7.2-4.1Z" fill="#0c3461"/>
                <path d="M918.5,2010.1c2.7-1.6,3-3.9.7-5.3l-24.9-14.4c-2.3-1.4-6.5-1.2-9.2.4l-7.2,4.1c-2.7,1.6-3,3.9-.7,5.3l24.9,14.4c2.3,1.4,6.5,1.2,9.2-.4l7.2-4.1Z" fill="#0c3461"/>
                <path d="M957.2,2032.5c2.7-1.6,3-3.9.7-5.3l-24.9-14.4c-2.3-1.4-6.5-1.2-9.2.4l-7.2,4.1c-2.7,1.6-3,3.9-.7,5.3l24.9,14.4c2.3,1.4,6.5,1.2,9.2-.4l7.2-4.1Z" fill="#0c3461"/>
                <path d="M996,2054.8c2.7-1.6,3-3.9.7-5.3l-24.9-14.4c-2.3-1.4-6.5-1.2-9.2.4l-7.2,4.1c-2.7,1.6-3,3.9-.7,5.3l24.9,14.4c2.3,1.4,6.5,1.2,9.2-.4l7.2-4.1Z" fill="#0c3461"/>
                <path d="M1034.7,2077.2c2.7-1.6,3-3.9.7-5.3l-24.9-14.4c-2.3-1.4-6.5-1.2-9.2.4l-7.2,4.1c-2.7,1.6-3,3.9-.7,5.3l24.9,14.4c2.3,1.4,6.5,1.2,9.2-.4l7.2-4.1Z" fill="#0c3461"/>
                <path d="M1073.4,2099.6c2.7-1.6,3-3.9.7-5.3l-24.9-14.4c-2.3-1.4-6.5-1.2-9.2.4l-7.2,4.1c-2.7,1.6-3,3.9-.7,5.3l24.9,14.4c2.3,1.4,6.5,1.2,9.2-.4l7.2-4.1Z" fill="#0c3461"/>
                <path d="M1112.1,2121.9c2.7-1.6,3-3.9.7-5.3l-24.9-14.4c-2.3-1.4-6.5-1.2-9.2.4l-7.2,4.1c-2.7,1.6-3,3.9-.7,5.3l24.9,14.4c2.3,1.4,6.5,1.2,9.2-.4l7.2-4.1Z" fill="#0c3461"/>
                <path d="M1150.9,2144.3c2.7-1.6,3-3.9.7-5.3l-24.9-14.4c-2.3-1.4-6.5-1.2-9.2.4l-7.2,4.1c-2.7,1.6-3,3.9-.7,5.3l24.9,14.4c2.3,1.4,6.5,1.2,9.2-.4l7.2-4.1Z" fill="#0c3461"/>
                <path d="M1189.6,2166.6c2.7-1.6,3-3.9.7-5.3l-24.9-14.4c-2.3-1.4-6.5-1.2-9.2.4l-7.2,4.1c-2.7,1.6-3,3.9-.7,5.3l24.9,14.4c2.3,1.4,6.5,1.2,9.2-.4l7.2-4.1Z" fill="#0c3461"/>
                <path d="M1228.3,2189c2.7-1.6,3-3.9.7-5.3l-24.9-14.4c-2.3-1.4-6.5-1.2-9.2.4l-7.2,4.1c-2.7,1.6-3,3.9-.7,5.3l24.9,14.4c2.3,1.4,6.5,1.2,9.2-.4l7.2-4.1Z" fill="#0c3461"/>
              </g>
              <g>
                <path d="M761.1,1872.9c2.7-1.6,3-3.9.7-5.3l-20.9-12.1c-2.3-1.4-6.5-1.2-9.2.4l-24.2,13.9c-2.7,1.6-3,3.9-.7,5.3l20.9,12.1c2.3,1.4,6.5,1.2,9.2-.4l24.2-13.9Z" fill="#0c3461"/>
                <path d="M795.8,1892.9c2.7-1.6,3-3.9.7-5.3l-20.9-12.1c-2.3-1.4-6.5-1.2-9.2.4l-24.2,13.9c-2.7,1.6-3,3.9-.7,5.3l20.9,12.1c2.3,1.4,6.5,1.2,9.2-.4l24.2-13.9Z" fill="#0c3461"/>
                <path d="M830.6,1913c2.7-1.6,3-3.9.7-5.3l-20.9-12.1c-2.3-1.4-6.5-1.2-9.2.4l-24.2,13.9c-2.7,1.6-3,3.9-.7,5.3l20.9,12.1c2.3,1.4,6.5,1.2,9.2-.4l24.2-13.9Z" fill="#0c3461"/>
                <path d="M865.4,1933.1c2.7-1.6,3-3.9.7-5.3l-20.9-12.1c-2.3-1.4-6.5-1.2-9.2.4l-24.2,13.9c-2.7,1.6-3,3.9-.7,5.3l20.9,12.1c2.3,1.4,6.5,1.2,9.2-.4l24.2-13.9Z" fill="#0c3461"/>
                <path d="M900.1,1953.2c2.7-1.6,3-3.9.7-5.3l-20.9-12.1c-2.3-1.4-6.5-1.2-9.2.4l-24.2,13.9c-2.7,1.6-3,3.9-.7,5.3l20.9,12.1c2.3,1.4,6.5,1.2,9.2-.4l24.2-13.9Z" fill="#0c3461"/>
                <path d="M934.9,1973.2c2.7-1.6,3-3.9.7-5.3l-20.9-12.1c-2.3-1.4-6.5-1.2-9.2.4l-24.2,13.9c-2.7,1.6-3,3.9-.7,5.3l20.9,12.1c2.3,1.4,6.5,1.2,9.2-.4l24.2-13.9Z" fill="#0c3461"/>
                <path d="M969.7,1993.3c2.7-1.6,3-3.9.7-5.3l-20.9-12.1c-2.3-1.4-6.5-1.2-9.2.4l-24.2,13.9c-2.7,1.6-3,3.9-.7,5.3l20.9,12.1c2.3,1.4,6.5,1.2,9.2-.4l24.2-13.9Z" fill="#0c3461"/>
                <path d="M1004.5,2013.4c2.7-1.6,3-3.9.7-5.3l-20.9-12.1c-2.3-1.4-6.5-1.2-9.2.4l-24.2,13.9c-2.7,1.6-3,3.9-.7,5.3l20.9,12.1c2.3,1.4,6.5,1.2,9.2-.4l24.2-13.9Z" fill="#0c3461"/>
                <path d="M1039.2,2033.5c2.7-1.6,3-3.9.7-5.3l-20.9-12.1c-2.3-1.4-6.5-1.2-9.2.4l-24.2,13.9c-2.7,1.6-3,3.9-.7,5.3l20.9,12.1c2.3,1.4,6.5,1.2,9.2-.4l24.2-13.9Z" fill="#0c3461"/>
                <path d="M1074,2053.5c2.7-1.6,3-3.9.7-5.3l-20.9-12.1c-2.3-1.4-6.5-1.2-9.2.4l-24.2,13.9c-2.7,1.6-3,3.9-.7,5.3l20.9,12.1c2.3,1.4,6.5,1.2,9.2-.4l24.2-13.9Z" fill="#0c3461"/>
                <path d="M1108.8,2073.6c2.7-1.6,3-3.9.7-5.3l-20.9-12.1c-2.3-1.4-6.5-1.2-9.2.4l-24.2,13.9c-2.7,1.6-3,3.9-.7,5.3l20.9,12.1c2.3,1.4,6.5,1.2,9.2-.4l24.2-13.9Z" fill="#0c3461"/>
                <path d="M1143.5,2093.7c2.7-1.6,3-3.9.7-5.3l-20.9-12.1c-2.3-1.4-6.5-1.2-9.2.4l-24.2,13.9c-2.7,1.6-3,3.9-.7,5.3l20.9,12.1c2.3,1.4,6.5,1.2,9.2-.4l24.2-13.9Z" fill="#0c3461"/>
                <path d="M1178.3,2113.8c2.7-1.6,3-3.9.7-5.3l-20.9-12.1c-2.3-1.4-6.5-1.2-9.2.4l-24.2,13.9c-2.7,1.6-3,3.9-.7,5.3l20.9,12.1c2.3,1.4,6.5,1.2,9.2-.4l24.2-13.9Z" fill="#0c3461"/>
                <path d="M1213.1,2133.8c2.7-1.6,3-3.9.7-5.3l-20.9-12.1c-2.3-1.4-6.5-1.2-9.2.4l-24.2,13.9c-2.7,1.6-3,3.9-.7,5.3l20.9,12.1c2.3,1.4,6.5,1.2,9.2-.4l24.2-13.9Z" fill="#0c3461"/>
                <path d="M1268.5,2165.8c2.7-1.6,3-3.9.7-5.3l-41.5-24c-2.3-1.4-6.5-1.2-9.2.4l-24.2,13.9c-2.7,1.6-3,3.9-.7,5.3l41.5,24c2.3,1.4,6.5,1.2,9.2-.4l24.2-13.9Z" fill="#0c3461"/>
              </g>
              <g>
                <path d="M1255,2139.6c-2.7,1.6-3,3.9-.7,5.3l20.9,12.1c2.3,1.4,6.5,1.2,9.2-.4l24.2-13.9c2.7-1.6,3-3.9.7-5.3l-20.9-12.1c-2.3-1.4-6.5-1.2-9.2.4l-24.2,13.9Z" fill="#0c3461"/>
                <path d="M1220.2,2119.5c-2.7,1.6-3,3.9-.7,5.3l20.9,12.1c2.3,1.4,6.5,1.2,9.2-.4l24.2-13.9c2.7-1.6,3-3.9.7-5.3l-20.9-12.1c-2.3-1.4-6.5-1.2-9.2.4l-24.2,13.9Z" fill="#0c3461"/>
                <path d="M1185.5,2099.4c-2.7,1.6-3,3.9-.7,5.3l20.9,12.1c2.3,1.4,6.5,1.2,9.2-.4l24.2-13.9c2.7-1.6,3-3.9.7-5.3l-20.9-12.1c-2.3-1.4-6.5-1.2-9.2.4l-24.2,13.9Z" fill="#0c3461"/>
                <path d="M1150.7,2079.3c-2.7,1.6-3,3.9-.7,5.3l20.9,12.1c2.3,1.4,6.5,1.2,9.2-.4l24.2-13.9c2.7-1.6,3-3.9.7-5.3l-20.9-12.1c-2.3-1.4-6.5-1.2-9.2.4l-24.2,13.9Z" fill="#0c3461"/>
                <path d="M1115.9,2059.3c-2.7,1.6-3,3.9-.7,5.3l20.9,12.1c2.3,1.4,6.5,1.2,9.2-.4l24.2-13.9c2.7-1.6,3-3.9.7-5.3l-20.9-12.1c-2.3-1.4-6.5-1.2-9.2.4l-24.2,13.9Z" fill="#0c3461"/>
                <path d="M1081.2,2039.2c-2.7,1.6-3,3.9-.7,5.3l20.9,12.1c2.3,1.4,6.5,1.2,9.2-.4l24.2-13.9c2.7-1.6,3-3.9.7-5.3l-20.9-12.1c-2.3-1.4-6.5-1.2-9.2.4l-24.2,13.9Z" fill="#0c3461"/>
                <path d="M1046.4,2019.1c-2.7,1.6-3,3.9-.7,5.3l20.9,12.1c2.3,1.4,6.5,1.2,9.2-.4l24.2-13.9c2.7-1.6,3-3.9.7-5.3l-20.9-12.1c-2.3-1.4-6.5-1.2-9.2.4l-24.2,13.9Z" fill="#0c3461"/>
                <path d="M1011.6,1999c-2.7,1.6-3,3.9-.7,5.3l20.9,12.1c2.3,1.4,6.5,1.2,9.2-.4l24.2-13.9c2.7-1.6,3-3.9.7-5.3l-20.9-12.1c-2.3-1.4-6.5-1.2-9.2.4l-24.2,13.9Z" fill="#0c3461"/>
                <path d="M976.9,1979c-2.7,1.6-3,3.9-.7,5.3l20.9,12.1c2.3,1.4,6.5,1.2,9.2-.4l24.2-13.9c2.7-1.6,3-3.9.7-5.3l-20.9-12.1c-2.3-1.4-6.5-1.2-9.2.4l-24.2,13.9Z" fill="#0c3461"/>
                <path d="M942.1,1958.9c-2.7,1.6-3,3.9-.7,5.3l20.9,12.1c2.3,1.4,6.5,1.2,9.2-.4l24.2-13.9c2.7-1.6,3-3.9.7-5.3l-20.9-12.1c-2.3-1.4-6.5-1.2-9.2.4l-24.2,13.9Z" fill="#0c3461"/>
                <path d="M907.3,1938.8c-2.7,1.6-3,3.9-.7,5.3l20.9,12.1c2.3,1.4,6.5,1.2,9.2-.4l24.2-13.9c2.7-1.6,3-3.9.7-5.3l-20.9-12.1c-2.3-1.4-6.5-1.2-9.2.4l-24.2,13.9Z" fill="#0c3461"/>
                <path d="M872.5,1918.7c-2.7,1.6-3,3.9-.7,5.3l20.9,12.1c2.3,1.4,6.5,1.2,9.2-.4l24.2-13.9c2.7-1.6,3-3.9.7-5.3l-20.9-12.1c-2.3-1.4-6.5-1.2-9.2.4l-24.2,13.9Z" fill="#0c3461"/>
                <path d="M837.8,1898.7c-2.7,1.6-3,3.9-.7,5.3l20.9,12.1c2.3,1.4,6.5,1.2,9.2-.4l24.2-13.9c2.7-1.6,3-3.9.7-5.3l-20.9-12.1c-2.3-1.4-6.5-1.2-9.2.4l-24.2,13.9Z" fill="#0c3461"/>
                <path d="M803,1878.6c-2.7,1.6-3,3.9-.7,5.3l20.9,12.1c2.3,1.4,6.5,1.2,9.2-.4l24.2-13.9c2.7-1.6,3-3.9.7-5.3l-20.9-12.1c-2.3-1.4-6.5-1.2-9.2.4l-24.2,13.9Z" fill="#0c3461"/>
                <path d="M747.6,1846.6c-2.7,1.6-3,3.9-.7,5.3l41.5,24c2.3,1.4,6.5,1.2,9.2-.4l24.2-13.9c2.7-1.6,3-3.9.7-5.3l-41.5-24c-2.3-1.4-6.5-1.2-9.2.4l-24.2,13.9Z" fill="#0c3461"/>
              </g>
              <g>
                <path d="M1215.3,2070.3c-2.7,1.6-3,3.9-.7,5.3l20.9,12.1c2.3,1.4,6.5,1.2,9.2-.4l24.2-13.9c2.7-1.6,3-3.9.7-5.3l-20.9-12.1c-2.3-1.4-6.5-1.2-9.2.4l-24.2,13.9Z" fill="#0c3461"/>
                <path d="M1180.6,2050.2c-2.7,1.6-3,3.9-.7,5.3l20.9,12.1c2.3,1.4,6.5,1.2,9.2-.4l24.2-13.9c2.7-1.6,3-3.9.7-5.3l-20.9-12.1c-2.3-1.4-6.5-1.2-9.2.4l-24.2,13.9Z" fill="#0c3461"/>
                <path d="M1145.8,2030.1c-2.7,1.6-3,3.9-.7,5.3l20.9,12.1c2.3,1.4,6.5,1.2,9.2-.4l24.2-13.9c2.7-1.6,3-3.9.7-5.3l-20.9-12.1c-2.3-1.4-6.5-1.2-9.2.4l-24.2,13.9Z" fill="#0c3461"/>
                <path d="M1111,2010.1c-2.7,1.6-3,3.9-.7,5.3l20.9,12.1c2.3,1.4,6.5,1.2,9.2-.4l24.2-13.9c2.7-1.6,3-3.9.7-5.3l-20.9-12.1c-2.3-1.4-6.5-1.2-9.2.4l-24.2,13.9Z" fill="#0c3461"/>
                <path d="M1076.2,1990c-2.7,1.6-3,3.9-.7,5.3l20.9,12.1c2.3,1.4,6.5,1.2,9.2-.4l24.2-13.9c2.7-1.6,3-3.9.7-5.3l-20.9-12.1c-2.3-1.4-6.5-1.2-9.2.4l-24.2,13.9Z" fill="#0c3461"/>
                <path d="M1041.5,1969.9c-2.7,1.6-3,3.9-.7,5.3l20.9,12.1c2.3,1.4,6.5,1.2,9.2-.4l24.2-13.9c2.7-1.6,3-3.9.7-5.3l-20.9-12.1c-2.3-1.4-6.5-1.2-9.2.4l-24.2,13.9Z" fill="#0c3461"/>
                <path d="M1006.7,1949.8c-2.7,1.6-3,3.9-.7,5.3l20.9,12.1c2.3,1.4,6.5,1.2,9.2-.4l24.2-13.9c2.7-1.6,3-3.9.7-5.3l-20.9-12.1c-2.3-1.4-6.5-1.2-9.2.4l-24.2,13.9Z" fill="#0c3461"/>
                <path d="M971.9,1929.8c-2.7,1.6-3,3.9-.7,5.3l20.9,12.1c2.3,1.4,6.5,1.2,9.2-.4l24.2-13.9c2.7-1.6,3-3.9.7-5.3l-20.9-12.1c-2.3-1.4-6.5-1.2-9.2.4l-24.2,13.9Z" fill="#0c3461"/>
                <path d="M937.2,1909.7c-2.7,1.6-3,3.9-.7,5.3l20.9,12.1c2.3,1.4,6.5,1.2,9.2-.4l24.2-13.9c2.7-1.6,3-3.9.7-5.3l-20.9-12.1c-2.3-1.4-6.5-1.2-9.2.4l-24.2,13.9Z" fill="#0c3461"/>
                <path d="M902.4,1889.6c-2.7,1.6-3,3.9-.7,5.3l20.9,12.1c2.3,1.4,6.5,1.2,9.2-.4l24.2-13.9c2.7-1.6,3-3.9.7-5.3l-20.9-12.1c-2.3-1.4-6.5-1.2-9.2.4l-24.2,13.9Z" fill="#0c3461"/>
                <path d="M867.6,1869.5c-2.7,1.6-3,3.9-.7,5.3l20.9,12.1c2.3,1.4,6.5,1.2,9.2-.4l24.2-13.9c2.7-1.6,3-3.9.7-5.3l-20.9-12.1c-2.3-1.4-6.5-1.2-9.2.4l-24.2,13.9Z" fill="#0c3461"/>
                <path d="M886.4,1852.5c2.7-1.6,3-3.9.7-5.3l-66-38.1c-2.3-1.4-6.5-1.2-9.2.4l-24.2,13.9c-2.7,1.6-3,3.9-.7,5.3l66,38.1c2.3,1.4,6.5,1.2,9.2-.4l24.2-13.9Z" fill="#0c3461"/>
                <path d="M1274.3,2076.4c2.7-1.6,6.8-1.7,9.2-.4l66,38.1c2.3,1.4,2,3.7-.7,5.3l-24.2,13.9c-2.7,1.6-6.8,1.7-9.2.4l-66-38.1c-2.3-1.4-2-3.7.7-5.3l24.2-13.9Z" fill="#0c3461"/>
              </g>
              <g>
                <g>
                  <path d="M1238.1,2037.1c-2.7,1.6-3,3.9-.7,5.3l20.9,12.1c2.3,1.4,6.5,1.2,9.2-.4l24.2-13.9c2.7-1.6,3-3.9.7-5.3l-20.9-12.1c-2.3-1.4-6.5-1.2-9.2.4l-24.2,13.9Z" fill="#0c3461"/>
                  <g>
                    <path d="M1203.3,2017c-2.7,1.6-3,3.9-.7,5.3l20.9,12.1c2.3,1.4,6.5,1.2,9.2-.4l24.2-13.9c2.7-1.6,3-3.9.7-5.3l-20.9-12.1c-2.3-1.4-6.5-1.2-9.2.4l-24.2,13.9Z" fill="#0c3461"/>
                    <path d="M1168.6,1996.9c-2.7,1.6-3,3.9-.7,5.3l20.9,12.1c2.3,1.4,6.5,1.2,9.2-.4l24.2-13.9c2.7-1.6,3-3.9.7-5.3l-20.9-12.1c-2.3-1.4-6.5-1.2-9.2.4l-24.2,13.9Z" fill="#0c3461"/>
                    <path d="M1133.8,1976.8c-2.7,1.6-3,3.9-.7,5.3l20.9,12.1c2.3,1.4,6.5,1.2,9.2-.4l24.2-13.9c2.7-1.6,3-3.9.7-5.3l-20.9-12.1c-2.3-1.4-6.5-1.2-9.2.4l-24.2,13.9Z" fill="#0c3461"/>
                    <path d="M1099,1956.8c-2.7,1.6-3,3.9-.7,5.3l20.9,12.1c2.3,1.4,6.5,1.2,9.2-.4l24.2-13.9c2.7-1.6,3-3.9.7-5.3l-20.9-12.1c-2.3-1.4-6.5-1.2-9.2.4l-24.2,13.9Z" fill="#0c3461"/>
                    <path d="M1064.2,1936.7c-2.7,1.6-3,3.9-.7,5.3l20.9,12.1c2.3,1.4,6.5,1.2,9.2-.4l24.2-13.9c2.7-1.6,3-3.9.7-5.3l-20.9-12.1c-2.3-1.4-6.5-1.2-9.2.4l-24.2,13.9Z" fill="#0c3461"/>
                    <path d="M1029.5,1916.6c-2.7,1.6-3,3.9-.7,5.3l20.9,12.1c2.3,1.4,6.5,1.2,9.2-.4l24.2-13.9c2.7-1.6,3-3.9.7-5.3l-20.9-12.1c-2.3-1.4-6.5-1.2-9.2.4l-24.2,13.9Z" fill="#0c3461"/>
                    <path d="M994.7,1896.5c-2.7,1.6-3,3.9-.7,5.3l20.9,12.1c2.3,1.4,6.5,1.2,9.2-.4l24.2-13.9c2.7-1.6,3-3.9.7-5.3l-20.9-12.1c-2.3-1.4-6.5-1.2-9.2.4l-24.2,13.9Z" fill="#0c3461"/>
                    <path d="M959.9,1876.5c-2.7,1.6-3,3.9-.7,5.3l20.9,12.1c2.3,1.4,6.5,1.2,9.2-.4l24.2-13.9c2.7-1.6,3-3.9.7-5.3l-20.9-12.1c-2.3-1.4-6.5-1.2-9.2.4l-24.2,13.9Z" fill="#0c3461"/>
                    <path d="M925.2,1856.4c-2.7,1.6-3,3.9-.7,5.3l20.9,12.1c2.3,1.4,6.5,1.2,9.2-.4l24.2-13.9c2.7-1.6,3-3.9.7-5.3l-20.9-12.1c-2.3-1.4-6.5-1.2-9.2.4l-24.2,13.9Z" fill="#0c3461"/>
                  </g>
                </g>
                <g>
                  <path d="M944,1839.4c2.7-1.6,3-3.9.7-5.3l-83.4-48.1c-2.3-1.4-6.5-1.2-9.2.4l-24.2,13.9c-2.7,1.6-3,3.9-.7,5.3l83.4,48.1c2.3,1.4,6.5,1.2,9.2-.4l24.2-13.9Z" fill="#0c3461"/>
                  <path d="M1297,2043.2c2.7-1.6,6.8-1.7,9.2-.4l83.4,48.1c2.3,1.4,2,3.7-.7,5.3l-24.2,13.9c-2.7,1.6-6.8,1.7-9.2.4l-83.4-48.1c-2.3-1.4-2-3.7.7-5.3l24.2-13.9Z" fill="#0c3461"/>
                </g>
              </g>
            </g>
            <polygon points="1359.6 1892.5 1205 1803.2 1103 1862.1 1257.6 1951.4 1359.6 1892.5" fill="#aec7e6"/>
          </g>
        </g>
        <path d="M1191.1,2250.5c1.3-2.9-189.2-336.3-189.5-339.1-1.8-3-4.2-5.5-6.7-7.9-4-3.8-8.3-7.1-13-9.9-.9-.5-588.4-339.7-589.2-340.2-1.8-1-3.7-1.9-5.7-2.4-1-.2-2.2-.4-3,.4,0,0-10.6,13.2-10.6,13.2.6-.6,1.4-.6,2.2-.5,2.7.4,5,1.7,7.4,3,0,0,588.3,339.7,588.3,339.7,2.1,1.2,4.1,2.6,6,4,2.5,1.8,4.8,3.8,7,5.9,0,0,0,0,0,0,2.5,2.4,5,5,6.7,8,0,0,188.5,335.8,188.5,335.8.7,1.3,1.4,2.6.7,3.9l10.6-13.2c.2-.2.3-.5.3-.7Z" fill="#d4e6f7"/>
        <g isolation="isolate">
          <path d="M971.2,1906.7c7.9,4.6,16.8,12.6,19.8,17.9l188.5,335.8c3,5.3-1,6-8.9,1.4l-588.3-339.7c-7.9-4.6-16.8-12.6-19.8-18l-188.5-335.8c-3-5.3,1-5.9,8.9-1.4l588.3,339.7Z" fill="#98add4"/>
          <g clip-path="url(#clippath)">
            <path d="M759.7,1884.2c-24.9-14.4-37.4-12.4-28,4.3,9.4,16.7,37.2,42,62.1,56.3,24.9,14.4,37.4,12.4,28-4.3-9.4-16.7-37.2-42-62.1-56.3h0Z" fill="#e9f0f7"/>
          </g>
        </g>
      </g>
      <path d="M1111.6,1148.7c17.1,83.2,99.8,284-158.3,422.8-50.2,27,7.8,210.9,71,190.3,224.3-72.7,287.4-240.9,333.9-363.9,84.7-224.2,45.6-454.6,7.7-466.6-191.5-60.7-281.3,85.8-254.2,217.4Z" fill="#aec7e6"/>
      <g>
        <g>
          <g>
            <path d="M1187.3,1212.7c.2.4.4.8.6,1.2-.3-.5-.5-1-.8-1.5,0,.1.1.2.2.3Z" fill="#aec7e6"/>
            <path d="M1700.8,1849c-119.4-31.5-384.4-201.3-405.4-228.6-21.1-27.3,16.5-54.2,16.5-159s-124.8-221.3-145.8-298.6c-36.5-134.1-10.8-192.7,82.3-228.7,42.3-16.4,108.5-21.7,284.9,26.6,0,0,160.3,45.5,300.2,190.6,5.7,5.9,10.6,11.7,14.6,17.5,28.8,41.4,60.6,90.4,91.5,210.9,21,82,10.9,293.9,13.1,354.8,2.1,60.9-132.5,145.9-251.8,114.4Z" fill="#dce9f5"/>
            <path d="M1952.7,1734.6c2.1,60.9-132.5,145.9-251.8,114.4-119.4-31.5-384.4-201.3-405.4-228.6-21.1-27.3,16.5-54.2,16.5-158.9s-6-36.4-15.5-58.2c69.5,41.3,139.1,82.6,208.6,123.9,24,14.2,48.7,28.8,76.3,33,27.6,4.2,59-4.3,74.1-27.7,22.8-35.4,11.2-80.4-.9-120.8-25.1-84.1,54.6-108.8,113.9-142.1,36.9-20.8,78.8-30.1,121.4-31.7,16.5,33.3,33.3,77.4,49.8,141.9,21,82,10.9,293.9,13.1,354.8Z" fill="#aec7e6"/>
          </g>
          <g>
            <path d="M1526.5,954.4s43,10,63.1,37.5c20.1,27.5-4.3,89.7-73.1,140.2-74.6,54.8-153,58.2-153,58.2l-21.1-85s138.3-16.3,184.1-150.9Z" fill="#aec7e6"/>
            <path d="M1342.4,1105.3l-54.7,59.2s-56-142.7,13.3-226.8c0,0-3.8,136.5,41.3,167.5Z" fill="#aec7e6"/>
          </g>
          <path d="M1511.1,895s11.4,36.1,22.1,66.6c10.8,30.6-87.9,184.5-190.9,143.7-79.1-31.4-39.2-112.8-39.2-178.2s208-92.3,208-32.1Z" fill="#f2a29b"/>
          <g>
            <path d="M1357.8,1297.6c5.5,282-66,495.6-66,495.6l-105.9,6.9-14.6-62.7c79.9-119.1,115.9-318.8,131.7-452.7,9.6-81.3,11.7-138.4,11.7-138.4l-7.3-52.2,80.3,26-38.9,39.2c5.3,47.5,8.1,93.8,9,138.5Z" fill="#ff8666"/>
            <path d="M1291.8,1793.2l-105.9,6.9-14.6-62.7c79.9-119.1,115.9-318.8,131.7-452.7,0,0,4.2,7.4,15.8,10,23.9,5.4,39.1,3,39.1,3,5.5,282-66,495.6-66,495.6Z" fill="#ed4944"/>
            <polygon points="1307.4 1094 1342.4 1105.3 1313.4 1136.8 1307.4 1094" fill="#ed4944"/>
            <polygon points="1387.7 1120 1354.4 1153.6 1342.4 1105.3 1387.7 1120" fill="#ed4944"/>
          </g>
          <g>
            <path d="M1528.5,946.1s43,10,63.1,37.5c20.1,27.5-4.3,89.7-73.1,140.2-74.6,54.8-153,58.2-153,58.2l-23.1-76.7s140.3-24.7,186.1-159.2Z" fill="#dce9f5"/>
            <path d="M1342.4,1105.3l-52.6,50.9s-56-142.7,13.3-226.8c0,0-5.9,144.8,39.3,175.9Z" fill="#dce9f5"/>
          </g>
        </g>
        <g>
          <g>
            <path d="M1004.6,582.5c1.6,11.8,8.9,116.2,17.1,243.5,5.3,81.6,38.7,197,117.8,236.4,108,53.8,259,10,345.6-85.2,86.6-95.2,111.8-204.9,115.2-364.5,2.8-133-153.3-283.5-363.3-253.9-224,31.6-234.3,147.1-232.3,223.8Z" fill="#ffc5b3"/>
            <g>
              <path d="M1536.6,906.9s-14,23.5-88.9,9.1c-5.8-1.1-15.9-3.3-35.3,8.8-10.6,6.7-37.6,8.3-37.6-12.4l-.2-58.8c2.6-28.8-.2-62.3-50.8-62.3s-112.2,10.9-256.7-44.8c-210.4-81.1-91-161.6-91-161.6,0,0-13.1-12.2-18.4-31.9-2.3-8.5-3.1-18.3-.9-29.2,8.1-39.8,41.3-49,41.3-49,0,0,71.7-134.2,200.6-153.6,263.5-39.6,329.1,118.8,329.1,118.8,41.1,8.7,80.2,100.9,85.8,161.1,18.4,198.6-52.5,268-77,305.7Z" fill="#ff8666"/>
              <path d="M1536.6,906.9s-14,23.5-88.9,9.1c-5.8-1.1-15.9-3.4-35.3,8.8-10.6,6.7-37.6,8.2-37.6-12.4v-58.8c2.4-28.8-.4-62.3-51-62.3s-112.2,10.9-256.7-44.8c-147.4-56.8-132.9-113.3-111-142.1-20.7,65.3,222.3,133.5,284.8,136.7,75.7,3.8,120.8-49.3,196.6-45.5,39.7,2,123.4,37.9,156.2-5.3,9.7-12.8,16.3-28.6,22.8-44.3,4.7,164.6-57.2,226.2-79.8,261Z" fill="#ed4944"/>
              <path d="M1020,601.1c-12.2-3.4-26.4-8.5-43.9-16.2,0,0-13.1-12.2-18.4-31.9-2.3-8.5-3.1-18.3-.9-29.2.2-1,.4-2,.7-2.9,3.5,10.1,8.1,19.7,14.3,28.3,13.3,18.4,32.8,31.6,52.4,40.8,6.5,3.1,2.8,13-4.2,11Z" fill="#ed4944"/>
            </g>
            <path d="M1412.4,850.3l-3.2,99.9c-.4,13.2,10.8,19.8,21.6,15.5,31.6-12.6,51.9-46.5,59.7-82.6,13.1-60.9,5.3-108.6-44.3-82.8-7,3.6-32.9,21.3-33.8,50.1Z" fill="#ffc5b3"/>
          </g>
          <g>
            <path d="M1159.2,965.3c7.3,4.2,13.1,14.4,13.1,22.7v10.9c-.1,33.8-24,47.4-53.5,30.4-29.4-17-53.2-58.1-53.1-91.9v-10.9c0-8.4,6-11.7,13.2-7.5l80.2,46.3Z" fill="#6a0000"/>
            <path d="M1042.1,801.3c8.9,5.1,16.1,24.6,16,43.4,0,18.9-7.3,30-16.2,24.8-8.9-5.1-16-24.6-16-43.4,0-18.9,7.3-30,16.2-24.9Z" fill="#6a0000"/>
            <path d="M1197.4,853.9c6.1,3.5,11.6,8.3,15.5,12.3,4,3.9,6.5,7,6.6,7.2,2.1,2.6,2.9,6.1,1.6,7.9-.8,1.2-2.3,1.2-3.9.3-.7-.4-1.5-1.1-2.2-1.9l-.3-.3c-.2-.3-.6-.7-1-1.2-.9-1-2.3-2.5-3.9-4.1-3.3-3.3-7.8-7.2-12.5-9.9,0,0,0,0-.1,0-3.1-1.8-6.1-3-9.1-3.4-3-.3-5.9.2-8.6,2.2-.9.6-2.1.5-3.3-.2-1-.6-2.1-1.6-2.9-3-1.8-2.9-2-6.2-.4-7.4,3.6-2.6,7.8-3.4,12-2.9,4.2.5,8.5,2.2,12.4,4.5Z" fill="#6a0000"/>
            <path d="M1196.7,890.6c8.9,5.1,16.1,24.6,16,43.4,0,18.9-7.3,30-16.2,24.8-8.9-5.1-16-24.6-16-43.4s7.3-30,16.2-24.9Z" fill="#6a0000"/>
            <path d="M1041.6,763.9c4,2.3,8.2,5.4,12.4,9.8,4.2,4.4,8.3,9.9,11.9,16.7,1.6,3.1,1.5,6.2-.4,7-.8.4-1.9.2-2.9-.4-1.2-.7-2.4-2-3.3-3.6-2.7-5.1-5.6-9-8.6-12.1-3-3.1-6.1-5.4-9.1-7.2-4.1-2.3-8-3.6-11.1-4.3-3.1-.7-5.5-.7-6.3-.7-.3,0-.4,0-.4,0l-1.2-3.2,1.2,3.2-1.2-3.2,1.2,3.2c-.7,0-1.4-.2-2.2-.6-1.5-.9-3-2.7-3.8-4.8-1.2-3.2-.5-5.8,1.7-6,.2,0,2.7-.2,6.6.5,4,.7,9.4,2.2,15.6,5.7Z" fill="#6a0000"/>
          </g>
        </g>
      </g>
      <g>
        <path d="M1851.7,1769.7c175.3-137.1,91.6-447,18.6-569.3-26.9-45.2-85.2-85.2-165.3-50.4-80,34.8-116.6,103.2-72,217,133.3,208.5-5.9,302.7-91.7,251.4-65.8-39.3-223.4,89.2-138.9,155.8,90.4,71.2,272.3,133.7,449.2-4.6Z" fill="#dce9f5"/>
        <g>
          <path d="M1344.9,1701.8c37.6,34.1,109.2,61.7,151.3,37.2,47.7-27.7,32.3-71.3,32.3-71.3,0,0,7-50.9-3.7-65.6-12.5-17-29.7-32.2-48.9-45.6-60.6-42.3-140-65.7-145.5-66,0,0-2.6,40.4-1.8,101,.1,9,0,18.4-.1,27.9-.4,34,.4,67.8,16.4,82.4Z" fill="#f2a29b"/>
          <path d="M1496.2,1739c48-27.2,32.3-71.3,32.3-71.3,0,0,7-50.9-3.7-65.6-12.5-17-29.7-32.2-48.9-45.6.3,15.8,3.3,30.7,5.2,44.8,0,4.8-2.8,9.7-4.1,14.3-1.9,7.2-3.5,14.6-5.1,21.8-1.6,7.3-3.1,14.7-4.6,21.9-1.8,8.7-2.2,18.3-7.3,26-4.8,7.2-16.3,25.2-24.6,24.8-13.7-.6,12.7,56,60.7,28.8Z" fill="#ffc5b3"/>
          <path d="M1371.2,1719.7s-75-39-90.4-75.9c-25.5-61.1-18.4-92.8-17-117.1,1.4-24.3-7.1-56.8-2.1-67.5,5-10.6,54.6,7.8,60.2,41.1,5.6,33.4,14.1,62.8,14.1,62.8,0,0,93.8,32.4,66.9,114.3-9.1,27.8-24.4,48.7-31.5,42.2Z" fill="#f2a29b"/>
          <path d="M1429.8,1529.1s6.4-77-43.8-134.3c-50.2-57.3-112.8-69.1-129.9-43.1-17.1,26-1.2,41.3,33.7,69.7s40.8,54.3,40.8,69.1c0,59.9,94.1,98.5,99.3,38.6Z" fill="#f2a29b"/>
          <path d="M1483.5,1536.6s7-64.1-38.4-83c-45.4-18.8-119.2-10.3-120.9,55.4-1.7,65.7,43.5,77.7,71.8,67.6,24.1-8.6,23.3-38.8,23.3-38.8l64.2-1.3Z" fill="#ffc5b3"/>
          <path d="M1505.3,1575.6s2.8-54.3-34.7-73.2c-37.5-18.8-95.4-14.9-96.8,50.8-1.4,65.7,35.9,72.5,59.3,62.4,19.9-8.6,19.2-38.8,19.2-38.8l53-1.3Z" fill="#ffc5b3"/>
          <path d="M1528.9,1612.6s2.4-48.8-29.5-65.8c-31.9-16.9-81.1-13.4-82.3,45.7-1.2,59.1,30.5,65.2,50.4,56.1,16.9-7.7,16.3-34.9,16.3-34.9l45.1-1.2Z" fill="#ffc5b3"/>
        </g>
      </g>
      <g>
        <g>
          <path d="M935.3,1500.6c30.4,13.2,47.6,24.1,66.5,46,76.1,37,67.4,164.8,7.8,196.7,0,0-35.3,48-110.2,29.2-38.6-9.7-68.4-30.7-83.4-62.1-15-31.4,67.4-232.3,119.3-209.7Z" fill="#ffc5b3"/>
          <path d="M1028.9,1697.3c-7.2,18.6-31.5,17.2-31.5,17.2,0,0-11.1,4.1-32.5-1.3-13.2-3.3-26.5,4.6-29.5,17.9-3,13.6-11.7,27.9-33.5,33.2-19.5,4.7-47.1-3.9-61.2-18.3-10.3-10.5-18.6-22.7-24.8-35.7-15-31.4,15.3-106.9,60.5-141.1,85.5-64.8,169.9,60.4,152.5,128.1Z" fill="#e6938e"/>
          <path d="M795.8,1715.2c2.1,35.4,33.5,58.4,87.3,47.5,58.4-11.8,37.6-60.3,6-64.1-11.5-1.4-13.4-.1-13.4-.1l-5.1-45.3s-77.9,7.8-74.8,62Z" fill="#f2a29b"/>
          <path d="M764.7,1664.5c3.1,44.1,42.7,72.3,109.6,57.9,72.6-15.6,45.9-75.8,6.5-80-14.4-1.5-28.7-.5-28.7-.5l-7.1-56.4s-85.1,11.5-80.4,79.1Z" fill="#f2a29b"/>
          <path d="M761.7,1569.3c-18.7,44.6,6.1,91.7,78.5,110.7,78.7,20.6,82.3-51.4,45.8-75-13.3-8.6-39.1-16.7-39.1-16.7l20.9-58.6s-77.5-28.7-106.2,39.6Z" fill="#f2a29b"/>
          <path d="M804.3,1516.7c-27.9,34.3-32.4,94.4,27.4,127.7,88.8,49.4,85.7-43.9,74.1-52.7-11.5-8.8-29.3-22.4-29.3-22.4l58.9-68.6s-87.2-37.9-131,16.1Z" fill="#ffc5b3"/>
        </g>
        <path d="M1013.6,1565.9c-37-19.3-89.1-19.9-145.4,64.2-29.9,44.7,41.2,75.3,67.7,51.2,9.6-8.8,17.1-19.5,17.1-19.5,1.4,63.7,72.3,53.7,72.3,53.7,0,0,69.6-107.3-11.8-149.7Z" fill="#ffc5b3"/>
      </g>
    </g>
    <g isolation="isolate">
      <path d="M870.3,1407.1l-27.1-81.5,35.1-52.6,87.2-4.3h1s26.9,80.9,26.9,80.9l.2.5-34.7,51.9h0c0,.1-.3.6-.3.6l-88.2,4.3ZM955.9,1400.2l-25.7-77.3-83.7,4.1,25.7,77.3,83.7-4.1ZM990.6,1349.8l-25.5-76.7-32.5,48.6,25.5,76.7,32.5-48.6ZM930.5,1320.2l32.5-48.7-83.2,4.1-32.5,48.7,83.2-4.1Z" fill="#5386b4"/>
      <g>
        <path d="M925.8,1312.3h0c-3.2-.9-5-4.2-4-7.4l3.3-11.4c.9-3.2,4.2-5,7.4-4h0c3.2.9,5,4.2,4,7.4l-3.3,11.4c-.9,3.2-4.2,5-7.4,4Z" fill="#e9f0f7"/>
        <path d="M904.7,1314.3h0c-2.9,1.6-6.5.5-8.1-2.4l-5.7-10.4c-1.6-2.9-.5-6.5,2.4-8.1h0c2.9-1.6,6.5-.5,8.1,2.4l5.7,10.4c1.6,2.9.5,6.5-2.4,8.1Z" fill="#e9f0f7"/>
        <path d="M891.1,1330.6h0c-.9,3.2-4.2,5-7.4,4l-11.4-3.3c-3.2-.9-5-4.2-4-7.4h0c.9-3.2,4.2-5,7.4-4l11.4,3.3c3.2.9,5,4.2,4,7.4Z" fill="#e9f0f7"/>
        <path d="M893.1,1351.7h0c1.6,2.9.5,6.5-2.4,8.1l-10.4,5.7c-2.9,1.6-6.5.5-8.1-2.4h0c-1.6-2.9-.5-6.5,2.4-8.1l10.4-5.7c2.9-1.6,6.5-.5,8.1,2.4Z" fill="#e9f0f7"/>
        <path d="M909.4,1365.3h0c3.2.9,5,4.2,4,7.4l-3.3,11.4c-.9,3.2-4.2,5-7.4,4h0c-3.2-.9-5-4.2-4-7.4l3.3-11.4c.9-3.2,4.2-5,7.4-4Z" fill="#e9f0f7"/>
        <path d="M930.5,1363.3h0c2.9-1.6,6.5-.5,8.1,2.4l5.7,10.4c1.6,2.9.5,6.5-2.4,8.1h0c-2.9,1.6-6.5.5-8.1-2.4l-5.7-10.4c-1.6-2.9-.5-6.5,2.4-8.1Z" fill="#e9f0f7"/>
        <path d="M944.1,1347h0c.9-3.2,4.2-5,7.4-4l11.4,3.3c3.2.9,5,4.2,4,7.4h0c-.9,3.2-4.2,5-7.4,4l-11.4-3.3c-3.2-.9-5-4.2-4-7.4Z" fill="#e9f0f7"/>
        <path d="M942.1,1325.9h0c-1.6-2.9-.5-6.5,2.4-8.1l10.4-5.7c2.9-1.6,6.5-.5,8.1,2.4h0c1.6,2.9.5,6.5-2.4,8.1l-10.4,5.7c-2.9,1.6-6.5.5-8.1-2.4Z" fill="#e9f0f7"/>
      </g>
      <path d="M870.3,1407.1l-27.1-81.5,35.1-52.6,87.2-4.3h1s27.1,81.5,27.1,81.5l-34.8,52.1-.3.5-88.2,4.3ZM957,1400.2l32.5-48.7-83.2,4.1-32.5,48.7,83.2-4.1ZM904.2,1354l-25.5-76.7-32.5,48.6,25.5,76.7,32.5-48.6ZM990.3,1348.7l-25.7-77.3-83.7,4.1,25.7,77.3,83.7-4.1Z" fill="#5386b4"/>
    </g>
    <g>
      <g>
        <g>
          <path d="M1974.3,1868.1l207.5,271.2-243.3,32.1-207.5-271.2,243.3-32.1h0ZM1986.8,1838.1l-307.7,40.6,247,322.8,307.7-40.6-247-322.8h0Z" fill="#071f3b"/>
          <polygon points="1970.5 1811.8 1737.4 1842.6 1866.5 1651.2 1848.4 1627.6 1679.1 1878.7 1986.8 1838.1 1997.4 1822.3 1979.4 1798.7 1970.5 1811.8" fill="#114077"/>
          <polygon points="1713.7 1877.6 1866.5 1651.2 1848.4 1627.6 1679.1 1878.7 1793.8 2028.5 1810.4 2003.9 1713.7 1877.6" fill="#98add4"/>
          <polygon points="1891.2 1564.2 1848.4 1627.6 1866.5 1651.2 1907.5 1590.5 2140.6 1559.7 1979.4 1798.7 1997.4 1822.3 2198.9 1523.6 1891.2 1564.2" fill="#114077"/>
          <path d="M2200.4,1571.9l210.9,275.6-178.9,265.2-210.9-275.6,178.9-265.2h0ZM2198.9,1523.6l-212.1,314.5,247,322.8,212.1-314.5-247-322.8h0Z" fill="#175294"/>
          <g>
            <polygon points="1830.2 1874.2 1962.1 1678.7 2144.6 1654.6 2294.9 1850.9 2163 2046.4 1980.4 2070.5 1830.2 1874.2" fill="#fbc977"/>
            <polygon points="1962.1 1678.7 2112.3 1875 1980.4 2070.5 1830.2 1874.2 1962.1 1678.7" fill="#ff8666"/>
            <polygon points="2112.3 1875 2294.9 1850.9 2163 2046.4 1980.4 2070.5 2112.3 1875" fill="#c42545"/>
          </g>
          <path d="M2186.5,1553.7l207.5,271.2-243.3,32.1-207.5-271.2,243.3-32.1h0ZM2198.9,1523.6l-307.7,40.6,247,322.8,307.7-40.6-247-322.8h0Z" fill="#3d75a9"/>
          <path d="M2387.6,1882.5l-170.1,252.1-233.1,30.7,170.1-252.1,233.1-30.7h0ZM2446,1846.4l-307.7,40.6-212.1,314.5,307.7-40.6,212.1-314.5h0Z" fill="#0c3461"/>
          <polygon points="1892.7 1612.4 2103.6 1888 2077.4 1926.8 2095.5 1950.4 2138.2 1887 1891.2 1564.2 1848.4 1627.6 1866.5 1651.2 1892.7 1612.4" fill="#98add4"/>
          <polygon points="2095.5 1950.4 2077.4 1926.8 1924.7 2153.2 1810.4 2003.9 1793.8 2028.5 1926.1 2201.4 2095.5 1950.4" fill="#98add4"/>
        </g>
        <g>
          <polygon points="1591.4 2068 1927.2 2260.8 1927.1 2264.4 1596.2 2073 1591.4 2068" fill="#5386b4"/>
          <g>
            <path d="M1979.8,2278.3h0c.6,1.8,2.5,2.8,4.3,2.2l6.5-2.1c1.8-.6,2.8-2.5,2.2-4.3h0c-.6-1.8-2.5-2.8-4.3-2.2l-6.5,2.1c-1.8.6-2.8,2.5-2.2,4.3Z" fill="#e9f0f7"/>
            <path d="M1978.9,2290.5h0c-.9,1.7-.2,3.7,1.5,4.6l6.1,3.1c1.7.9,3.7.2,4.6-1.5h0c.9-1.7.2-3.7-1.5-4.6l-6.1-3.1c-1.7-.9-3.7-.2-4.6,1.5Z" fill="#e9f0f7"/>
            <path d="M1969.8,2298.5h0c-1.8.6-2.8,2.5-2.2,4.3l2.1,6.5c.6,1.8,2.5,2.8,4.3,2.2h0c1.8-.6,2.8-2.5,2.2-4.3l-2.1-6.5c-.6-1.8-2.5-2.8-4.3-2.2Z" fill="#e9f0f7"/>
            <path d="M1957.6,2297.6h0c-1.7-.9-3.7-.2-4.6,1.5l-3.1,6.1c-.9,1.7-.2,3.7,1.5,4.6h0c1.7.9,3.7.2,4.6-1.5l3.1-6.1c.9-1.7.2-3.7-1.5-4.6Z" fill="#e9f0f7"/>
            <path d="M1949.6,2288.5h0c-.6-1.8-2.5-2.8-4.3-2.2l-6.5,2.1c-1.8.6-2.8,2.5-2.2,4.3h0c.6,1.8,2.5,2.8,4.3,2.2l6.5-2.1c1.8-.6,2.8-2.5,2.2-4.3Z" fill="#e9f0f7"/>
            <path d="M1950.5,2276.3h0c.9-1.7.2-3.7-1.5-4.6l-6.1-3.1c-1.7-.9-3.7-.2-4.6,1.5h0c-.9,1.7-.2,3.7,1.5,4.6l6.1,3.1c1.7.9,3.7.2,4.6-1.5Z" fill="#e9f0f7"/>
            <path d="M1959.6,2268.3h0c1.8-.6,2.8-2.5,2.2-4.3l-2.1-6.5c-.6-1.8-2.5-2.8-4.3-2.2h0c-1.8.6-2.8,2.5-2.2,4.3l2.1,6.5c.6,1.8,2.5,2.8,4.3,2.2Z" fill="#e9f0f7"/>
            <path d="M1971.8,2269.2h0c1.7.9,3.7.2,4.6-1.5l3.1-6.1c.9-1.7.2-3.7-1.5-4.6h0c-1.7-.9-3.7-.2-4.6,1.5l-3.1,6.1c-.9,1.7-.2,3.7,1.5,4.6Z" fill="#e9f0f7"/>
          </g>
          <g>
            <g>
              <polygon points="1930.4 2260.9 1961.2 2270.3 1930.4 2260.9 1930.4 2260.9" fill="#175294"/>
              <path d="M2004.4,2255.4v-1.2s-1.1-.4-1.1-.4l-45.8-14h-.4c0-.1-29.1,20.3-29.1,20.3l-.8.6v1.2s-1.2,49-1.2,49v.7s46.2,14.1,46.2,14.1l1.2.4.8-.6,28.7-20.2.4-.3,1.2-49.7ZM1930.4,2260.9l27-19,43.8,13.4-20.9,14.7-6.1,4.3h0s0,0,0,0l-13-4-30.8-9.4h0ZM1972.2,2323.7l-44.3-13.5,1.2-47.6,44.3,13.5-1.2,47.6h0ZM1974.2,2323.1h0s1.1-45.4,1.1-45.4v-1.8s0,0,0,0l9.8-6.9,17.2-12.1-1.1,47.2-27,19Z" fill="#98add4"/>
            </g>
            <path d="M2003.2,2303.9l1.2-49.7-46.2-14.1-.7-.2-.5-.2-.8.6-29,20.5-1.2,49.7v.5s0,.7,0,.7l1.2.4,45.8,14h.4c0,.1,29-20.3,29-20.3l.4-.3.4-.3v-1.2ZM1958.2,2242.1l44.3,13.5-1.2,47.6-44.3-13.5h0s1.2-47.6,1.2-47.6h0ZM1928,2309l1.1-47.2,27-19h0s-1,42.2-1,42.2v5c-.1,0-27.2,19-27.2,19ZM1973,2324l-43.8-13.4,27-19,14.5,4.4,29.3,8.9h0s-27,19-27,19Z" fill="#98add4"/>
          </g>
          <g isolation="isolate">
            <path d="M1488.7,2083.7v-.6c.1,0,.1-.2.1-.2l11-63.5.5-.3,77.6-41.3.7.7,62.1,65.1-11.1,64.2-78.1,41.6-62.8-65.9ZM1552,2146.1l74.1-39.5-59.6-62.6-74.1,39.5,59.6,62.6ZM1492,2080.7l73.5-39.2,10.3-59.4-73.5,39.2-10.3,59.4ZM1627.4,2104.1l10.3-59.5-59.2-62.1-10.3,59.5,59.2,62.1Z" fill="#5386b4"/>
            <g>
              <path d="M1577.3,2039.4h0c3,1.6,6.7.4,8.3-2.6l5.6-10.9c1.6-3,.4-6.7-2.6-8.3h0c-3-1.6-6.7-.4-8.3,2.6l-5.6,10.9c-1.6,3-.4,6.7,2.6,8.3Z" fill="#e9f0f7"/>
              <path d="M1591.7,2055.8h0c1,3.2,4.5,5,7.7,4l11.7-3.7c3.2-1,5-4.5,4-7.7h0c-1-3.2-4.5-5-7.7-4l-11.7,3.7c-3.2,1-5,4.5-4,7.7Z" fill="#e9f0f7"/>
              <path d="M1590.2,2077.7h0c-1.6,3-.4,6.7,2.6,8.3l10.9,5.6c3,1.6,6.7.4,8.3-2.6h0c1.6-3,.4-6.7-2.6-8.3l-10.9-5.6c-3-1.6-6.7-.4-8.3,2.6Z" fill="#e9f0f7"/>
              <path d="M1573.7,2092h0c-3.2,1-5,4.5-4,7.7l3.7,11.7c1,3.2,4.5,5,7.7,4h0c3.2-1,5-4.5,4-7.7l-3.7-11.7c-1-3.2-4.5-5-7.7-4Z" fill="#e9f0f7"/>
              <path d="M1551.9,2090.5h0c-3-1.6-6.7-.4-8.3,2.6l-5.6,10.9c-1.6,3-.4,6.7,2.6,8.3h0c3,1.6,6.7.4,8.3-2.6l5.6-10.9c1.6-3,.4-6.7-2.6-8.3Z" fill="#e9f0f7"/>
              <path d="M1537.6,2074.1h0c-1-3.2-4.5-5-7.7-4l-11.7,3.7c-3.2,1-5,4.5-4,7.7h0c1,3.2,4.5,5,7.7,4l11.7-3.7c3.2-1,5-4.5,4-7.7Z" fill="#e9f0f7"/>
              <path d="M1539.1,2052.2h0c1.6-3,.4-6.7-2.6-8.3l-10.9-5.6c-3-1.6-6.7-.4-8.3,2.6h0c-1.6,3-.4,6.7,2.6,8.3l10.9,5.6c3,1.6,6.7.4,8.3-2.6Z" fill="#e9f0f7"/>
              <path d="M1555.5,2037.9h0c3.2-1,5-4.5,4-7.7l-3.7-11.7c-1-3.2-4.5-5-7.7-4h0c-3.2,1-5,4.5-4,7.7l3.7,11.7c1,3.2,4.5,5,7.7,4Z" fill="#e9f0f7"/>
            </g>
            <path d="M1488.7,2083.7v-.6c0,0,11.1-63.6,11.1-63.6l78.1-41.6.7.7,62.1,65.1-11.1,64.2-78.1,41.6-62.8-65.9ZM1550.8,2144.9l10.3-59.5-59.2-62.1-10.3,59.5,59.2,62.1ZM1553.6,2145.3l73.5-39.2,10.3-59.4-73.5,39.2-10.3,59.4ZM1562.9,2083.3l74.1-39.5-59.6-62.6-74.1,39.5,59.6,62.6Z" fill="#5386b4"/>
          </g>
        </g>
      </g>
      <g>
        <path d="M2262.3,1374.8l-120.4-69.5c-9-5.2-16.4-1-16.4,9.4l-.2,84.6c0,10.4,7.3,23,16.3,28.3l120.4,69.5c9,5.2,16.4,1,16.4-9.4l.2-84.6c0-10.4-7.3-23-16.3-28.3Z" fill="#cbe1f7"/>
        <g>
          <path d="M2176.9,1360.2c1.3.7,2.6,2.8,4,6.3,1.6,4.1,2.6,7-2.1,7.8-14.1,1.4-21.5,2.2-22.1,2.3.9,1.2,23.8,29.8,23.9,30.3,1.8,2.8,2.2,4.8.3,7.3-1.4,1.7-2.4,2.8-4.3,1.8-1.3.3-32.4-40.2-34-42-2.7-2.5-4.7-10.9.1-11.3,16.3-1.7,25.6-2.6,28-2.9,3.9-.3,3.8-.8,6.2.4Z" fill="#e9f0f7"/>
          <path d="M2212.3,1372.9c2.2,1.2,8,8.2,7.4,10.2,2.1-.5-23.8,44-24,44.8-1.8,4.3-4.8,1.4-7.5-1.6-3.3-3.8-5-5.4-3.1-10.1,0,0,23-41.7,23-41.7,1.5-2.4,2.1-2.7,4.1-1.6Z" fill="#e9f0f7"/>
          <path d="M2227.1,1389.2c1.4-.3,32.4,40.2,34.1,42,2.7,2.6,4.8,11,0,11.4-2.1-.2-33.1,4.5-34,2.6-2.8-1.5-6.8-10.4-5.2-13,.5-.6,1.5-1,3.1-1.2l22.1-2.3c-.9-1.2-23.8-29.9-23.9-30.3-1.8-2.9-2.2-4.9-.3-7.5,1.5-2,2.9-2.6,4.1-1.9Z" fill="#e9f0f7"/>
        </g>
      </g>
    </g>
    <g>
      <g>
        <g>
          <polygon points="91 872 355.1 1263.9 358.8 1263.5 96.4 876.4 91 872" fill="#5386b4"/>
          <g>
            <path d="M377.1,1314.8h0c1.8.4,3,2.2,2.6,4.1l-1.5,6.7c-.4,1.8-2.2,3-4.1,2.6h0c-1.8-.4-3-2.2-2.6-4.1l1.5-6.7c.4-1.8,2.2-3,4.1-2.6Z" fill="#e9f0f7"/>
            <path d="M389.2,1312.9h0c1.6-1,3.7-.5,4.7,1.1l3.6,5.8c1,1.6.5,3.7-1.1,4.7h0c-1.6,1-3.7.5-4.7-1.1l-3.6-5.8c-1-1.6-.5-3.7,1.1-4.7Z" fill="#e9f0f7"/>
            <path d="M396.3,1303.1h0c.4-1.8,2.2-3,4.1-2.6l6.7,1.5c1.8.4,3,2.2,2.6,4.1h0c-.4,1.8-2.2,3-4.1,2.6l-6.7-1.5c-1.8-.4-3-2.2-2.6-4.1Z" fill="#e9f0f7"/>
            <path d="M394.5,1291.1h0c-1-1.6-.5-3.7,1.1-4.7l5.8-3.6c1.6-1,3.7-.5,4.7,1.1h0c1,1.6.5,3.7-1.1,4.7l-5.8,3.6c-1.6,1-3.7.5-4.7-1.1Z" fill="#e9f0f7"/>
            <path d="M384.7,1283.9h0c-1.8-.4-3-2.2-2.6-4.1l1.5-6.7c.4-1.8,2.2-3,4.1-2.6h0c1.8.4,3,2.2,2.6,4.1l-1.5,6.7c-.4,1.8-2.2,3-4.1,2.6Z" fill="#e9f0f7"/>
            <path d="M372.6,1285.7h0c-1.6,1-3.7.5-4.7-1.1l-3.6-5.8c-1-1.6-.5-3.7,1.1-4.7h0c1.6-1,3.7-.5,4.7,1.1l3.6,5.8c1,1.6.5,3.7-1.1,4.7Z" fill="#e9f0f7"/>
            <path d="M365.4,1295.5h0c-.4,1.8-2.2,3-4.1,2.6l-6.7-1.5c-1.8-.4-3-2.2-2.6-4.1h0c.4-1.8,2.2-3,4.1-2.6l6.7,1.5c1.8.4,3,2.2,2.6,4.1Z" fill="#e9f0f7"/>
            <path d="M367.3,1307.6h0c1,1.6.5,3.7-1.1,4.7l-5.8,3.6c-1.6,1-3.7.5-4.7-1.1h0c-1-1.6-.5-3.7,1.1-4.7l5.8-3.6c1.6-1,3.7-.5,4.7,1.1Z" fill="#e9f0f7"/>
          </g>
          <g>
            <g>
              <polygon points="367.6 1297 372.6 1309.6 372.6 1309.6 367.6 1297" fill="#175294"/>
              <polygon points="374.3 1310.6 368.3 1320.9 374.3 1310.6 374.3 1310.6" fill="#175294"/>
              <polygon points="372.6 1309.6 368.9 1316 372.6 1309.6 372.6 1309.6" fill="#175294"/>
              <rect x="374.2" y="1306" width="47.6" height="0" transform="translate(-140.6 51.4) rotate(-6.3)" fill="#175294"/>
              <polygon points="374.3 1310.6 376.1 1310.4 374.3 1310.6 374.3 1310.6" fill="#175294"/>
              <polygon points="421.3 1305.4 421.3 1305.4 376.1 1310.4 421.3 1305.4" fill="#175294"/>
              <polygon points="355.6 1267.1 367.6 1297 355.6 1267.1 355.6 1267.1" fill="#175294"/>
              <path d="M405.8,1335.8l.2-.4,17.7-30.3.5-.8-.5-1.1-18-44.8h-.7c0,0-48.7,5.4-48.7,5.4h-1.2c0,.1-.5,1-.5,1l-17.9,30.7.2.4,17.8,44.4.5,1.1h1.2c0-.1,49.4-5.6,49.4-5.6ZM355.6,1267.1l12,29.9,5.1,12.6h0s0,0,0,0l-3.8,6.4-12.9,22.1-17.1-42.5,16.6-28.5h0ZM421.7,1303.4l-47.4,5.2-17.2-42.9,47.4-5.2,17.2,42.9h0ZM404.6,1334l-46.9,5.2,10.6-18.2,6-10.3h0s1.8-.2,1.8-.2l45.2-5h0s-16.7,28.6-16.7,28.6Z" fill="#98add4"/>
            </g>
            <path d="M405.8,1335.8l.3-.4.2-.4,17.9-30.7-.2-.4-17.8-44.5-.5-1.1h-.7c0,0-.5.1-.5.1l-49.4,5.4-17.9,30.7-.5.9.2.5.3.7,18,44.8,49.4-5.4h1.2ZM339.2,1296.3l47.3-5.2h0s17.2,42.9,17.2,42.9l-47.4,5.2-17.2-42.9h0ZM386.6,1289.1l-5,.6-41.9,4.6h0s16.7-28.6,16.7-28.6l46.9-5.2-16.7,28.6ZM405.4,1332.7h0s-11.4-28.5-11.4-28.5l-5.6-14.1,16.6-28.5,17.1,42.5-16.6,28.5Z" fill="#98add4"/>
          </g>
          <g isolation="isolate">
            <path d="M168.8,825.3l-34.8,81.4-63,16.6L.8,867l-.8-.7,34.6-80.8.2-.6,62.3-16.4h.2s.6-.2.6-.2l71,56.9ZM98.1,772.1l-33,77.2,67.4,54,33-77.2-67.4-54ZM36.8,787.3l-32.7,76.6,58.3-15.3,32.7-76.6-58.3,15.3ZM63.1,851.2l-58.4,15.4,67,53.7,58.4-15.4-67-53.7Z" fill="#5386b4"/>
            <g>
              <path d="M61.3,860.5h0c1.8,2.9.9,6.6-1.9,8.5l-10.4,6.5c-2.9,1.8-6.6.9-8.5-1.9h0c-1.8-2.9-.9-6.6,1.9-8.5l10.4-6.5c2.9-1.8,6.6-.9,8.5,1.9Z" fill="#e9f0f7"/>
              <path d="M78.9,873.4h0c3.3.7,5.4,4,4.6,7.3l-2.7,12c-.7,3.3-4,5.4-7.3,4.6h0c-3.3-.7-5.4-4-4.6-7.3l2.7-12c.7-3.3,4-5.4,7.3-4.6Z" fill="#e9f0f7"/>
              <path d="M100.5,870h0c2.9-1.8,6.6-.9,8.5,1.9l6.5,10.4c1.8,2.9.9,6.6-1.9,8.5h0c-2.9,1.8-6.6.9-8.5-1.9l-6.5-10.4c-1.8-2.9-.9-6.6,1.9-8.5Z" fill="#e9f0f7"/>
              <path d="M113.4,852.4h0c.7-3.3,4-5.4,7.3-4.6l12,2.7c3.3.7,5.4,4,4.6,7.3h0c-.7,3.3-4,5.4-7.3,4.6l-12-2.7c-3.3-.7-5.4-4-4.6-7.3Z" fill="#e9f0f7"/>
              <path d="M110.1,830.8h0c-1.8-2.9-.9-6.6,1.9-8.5l10.4-6.5c2.9-1.8,6.6-.9,8.5,1.9h0c1.8,2.9.9,6.6-1.9,8.5l-10.4,6.5c-2.9,1.8-6.6.9-8.5-1.9Z" fill="#e9f0f7"/>
              <path d="M92.4,817.9h0c-3.3-.7-5.4-4-4.6-7.3l2.7-12c.7-3.3,4-5.4,7.3-4.6h0c3.3.7,5.4,4,4.6,7.3l-2.7,12c-.7,3.3-4,5.4-7.3,4.6Z" fill="#e9f0f7"/>
              <path d="M70.8,821.2h0c-2.9,1.8-6.6.9-8.5-1.9l-6.5-10.4c-1.8-2.9-.9-6.6,1.9-8.5h0c2.9-1.8,6.6-.9,8.5,1.9l6.5,10.4c1.8,2.9.9,6.6-1.9,8.5Z" fill="#e9f0f7"/>
              <path d="M57.9,838.9h0c-.7,3.3-4,5.4-7.3,4.6l-12-2.7c-3.3-.7-5.4-4-4.6-7.3h0c.7-3.3,4-5.4,7.3-4.6l12,2.7c3.3.7,5.4,4,4.6,7.3Z" fill="#e9f0f7"/>
            </g>
            <path d="M168.8,825.3l-34.8,81.4-63,16.6L.8,867,0,866.3l34.8-81.4,62.5-16.4h.6c0-.1,71,56.8,71,56.8ZM97.2,771.4l-58.4,15.4,67,53.7,58.4-15.4-67-53.7ZM106.4,843.1l-32.7,76.6,58.3-15.3,32.7-76.6-58.3,15.3ZM36.3,788.3L3.4,865.5l67.4,54,33-77.2-67.4-54Z" fill="#5386b4"/>
          </g>
        </g>
        <g>
          <path d="M535.7,810.9l293.5,111.8-175.6,349.6-293.5-111.8,175.6-349.6h0ZM521.9,775.6l-201,400.2,346.4,132,201-400.2-346.4-132h0Z" fill="#175294"/>
          <path d="M325.3,657.5l161,126-175.2,348.9-161-126,175.2-348.9h0ZM315.6,614.1l-201,400.2,206.3,161.4,201-400.2-206.3-161.4h0Z" fill="#114077"/>
          <path d="M454.1,1160.4l134.6,105.6-248.8-94.8-134.6-105.6,248.8,94.8ZM114.6,1014.4l206.3,161.4,346.4,132-206.3-161.4-346.4-132h0Z" fill="#071f3b"/>
          <g>
            <polygon points="381.9 1067.7 269.4 979.6 375.5 768.3 601 854.2 713.5 942.3 607.4 1153.6 381.9 1067.7" fill="#ff8666"/>
            <polygon points="601 854.2 375.5 768.3 269.4 979.6 494.8 1065.5 601 854.2" fill="#fbc977"/>
            <polygon points="494.8 1065.5 607.4 1153.6 381.9 1067.7 269.4 979.6 494.8 1065.5" fill="#c42545"/>
          </g>
          <path d="M655.1,760.2l134.6,105.6-248.8-94.8-134.6-105.6,248.8,94.8ZM315.6,614.1l206.3,161.4,346.4,132-206.3-161.4-346.4-132h0Z" fill="#071f3b"/>
          <path d="M329.4,649.5l293.5,111.8-175.6,349.6-293.5-111.8,175.6-349.6h0ZM315.6,614.1l-201,400.2,346.4,132,201-400.2-346.4-132h0Z" fill="#3d75a9"/>
          <path d="M671.7,789.5l161,126-175.2,348.9-161-126,175.2-348.9h0ZM662,746.1l-201,400.2,206.3,161.4,201-400.2-206.3-161.4h0Z" fill="#0c3461"/>
        </g>
      </g>
      <g isolation="isolate">
        <g>
          <path d="M875.9,1180.8l-261.6-151c-10.7-6.2-19.4-1.2-19.4,11.1l-.2,84c0,12.3,8.6,27.2,19.3,33.4l261.6,151c10.7,6.2,19.4,1.2,19.4-11.1l.2-84c0-12.3-8.6-27.2-19.3-33.4Z" fill="#aec7e6" opacity=".8"/>
          <g>
            <polygon points="668.3 1095.4 668.3 1112.5 642 1114.4 642 1114.9 668.2 1147.2 668.1 1164.2 627.6 1111.6 627.6 1101 668.3 1095.4" fill="#e9f0f7"/>
            <path d="M686.9,1096.2v14s-.6,9.9-.6,9.9c5.5-5.3,14.7,2.1,17.1,7.7,1.6,3.4,2.4,7.5,2.4,12.4v45.6c-.1,0-9.7-5.5-9.7-5.5v-45.2c.1-2.6-.2-4.7-.9-6.1-1.4-3.2-5.9-5.7-8.5-2.3v48.1c-.1,0-9.7-5.5-9.7-5.5l.2-78.7,9.5,5.5Z" fill="#e9f0f7"/>
            <path d="M741.3,1155.8c1.7,6.9,1.2,15.7-.2,22.8l-17.2-9.9c0,5.6-.4,12.6,1.1,17.6.8,2.6,2.1,4.3,4.4,5.6,1,.6,2.2.9,3.1,0,1.6-1.7,1.4-5,1.4-7.5l7.9,4.6c.2,5.4-.5,11.2-3.6,12.6-2.4,1.2-5.7.6-10.2-2-7.7-4.4-11.5-12.3-12.9-21.1-1.2-5.9-.8-16.6-.8-23.2,0-5.9.4-10.7,2.7-15,4.2-7.1,12.9-1.3,17.2,2.7,3.5,3.4,5.8,7.7,7,12.8ZM733.6,1162.2c0-6.2,0-12.2-4.7-15.3-1.6-.9-2.9-1-3.7.8-1.5,3.6-1.2,9.1-1.2,13.6l9.6,5.5c.1-1.4.2-3.1.2-4.6h0Z" fill="#e9f0f7"/>
            <path d="M774.8,1174.2c1.2,3.7.3,46.9.5,51.8l-7.1-4.1-.7-5.5c-2.7,2.7-6.4,2-10,0-6.8-4-10-12.4-10-20.1-.3-12.7,8.4-13.4,18.6-11.8,0-2.4.1-8.9,0-11.2-.2-3.1-1.4-5.8-4.2-7.4-1.2-.7-2.6-1.1-3.7-.2-2,1.9-1.6,5.9-1.6,8.7l-7.3-4.2c-2.3-10.9,1.1-19,12.9-12.1,6.6,3.7,11.3,8.8,12.6,16.1ZM766,1210.4v-18.6c-5.9-1.1-9.3,2.1-9.2,8.2,0,4.2,1.2,8.3,4.9,10.4,1.4.8,3.1.9,4.3,0h0Z" fill="#e9f0f7"/>
            <path d="M803.2,1163.4l9.5,5.5-.2,78.7-7.4-4.3-.8-6c-2.9,4.1-7.8,2.3-11.3-.5-7.7-6.3-8.9-16.7-9-26.6,0,0,0-18.9,0-18.9,0-5.2.3-9.2,2.3-12.9,2-3.8,6.3-2.9,9.1-1,3.6,2.1,6.3,5.9,8,9.6l-.2-7.7v-15.9ZM803,1230v-35.8c-.8-2.7-2.2-5.7-4.7-7.1-1.3-.7-2.5-1.1-3.4,0-1.3,2.2-1.3,4.6-1.4,7.9,0,0,0,22.8,0,22.8,0,3.6.2,6.7,1.3,9.5,1.1,3.4,6.2,7.1,8.2,2.5h0Z" fill="#e9f0f7"/>
            <polygon points="821.7 1184 862.3 1236.5 862.2 1247.1 821.5 1252.7 821.6 1235.8 847.9 1233.8 847.9 1233.2 821.7 1201 821.7 1184" fill="#e9f0f7"/>
          </g>
        </g>
      </g>
      <g>
        <path d="M677.9,504.3l-100.4-57.9c-12.1-7-21.9-1.4-22,12.5l-.3,104.1c0,13.9,9.7,30.8,21.8,37.8l100.4,57.9c12.1,7,21.9,1.4,22-12.5l.3-104.1c0-13.9-9.7-30.8-21.8-37.8Z" fill="#cbe1f7"/>
        <path d="M613,507.1c3.3,1.9,5.7,6,5.7,9.7,0,0-.1,44.4-.1,44.4,0,13.5-10.8,18.3-22.1,11.5-7.2-4.1-13.5-11.6-17.1-19.3-.7-1.7-1.1-3.1-1.1-4.3-.2-3.2,2.9-4.6,5.4-3.2,2.8,1.2,6,8.4,8.7,10.9,2.3,2.3,6,4.9,9.3,4.5,3.5-.3,5.4-3.3,5.4-6.8,0,0,.1-44.4.1-44.4,0-3.7,2.9-4.9,5.8-3.1Z" fill="#e9f0f7"/>
        <path d="M653.3,529.3c7.5,4.2,14.8,11.4,19.4,18.5,1.8,2.7,2.7,5,2.6,7.1,0,5.4-5.5,4.4-7.7.7-2.8-4.4-9.9-11.7-14.4-14.2-5.5-3.2-11.9-5-12.2,2,.2,8,6.5,12.6,13.5,18.5,8.9,7.2,15.6,12.9,19.8,22.3,2.5,6,4.2,17.8-.9,22.6-5.7,5-13.7,2.4-20.4-1.4-4.4-2.5-8.3-5.5-11.8-8.7-3.5-3.4-16.6-17.7-10.5-22.5,2.4-1.4,5.4,1.1,6.9,3.4,2.5,3.7,4.8,6.8,7.2,9.2,3.9,4,11.7,9.6,17.2,8.8,2.5-.3,3.7-1.8,3.7-4.4-.3-8.7-7.5-14.2-15.3-20.4-13.4-10-20.1-21.1-20.1-33.2,0-15.1,12.4-14.8,23.1-8.4Z" fill="#e9f0f7"/>
      </g>
    </g>
  </g>
</svg>